<?xml version="1.0" encoding="utf-8"?>
<!-- Generator: Adobe Illustrator 16.0.0, SVG Export Plug-In . SVG Version: 6.00 Build 0)  -->
<!DOCTYPE svg PUBLIC "-//W3C//DTD SVG 1.1//EN" "http://www.w3.org/Graphics/SVG/1.1/DTD/svg11.dtd">
<svg version="1.1" id="Capa_1" xmlns="http://www.w3.org/2000/svg" xmlns:xlink="http://www.w3.org/1999/xlink" x="0px" y="0px"
	 width="163.394px" height="163.394px" viewBox="0 0 163.394 163.394" enable-background="new 0 0 163.394 163.394"
	 xml:space="preserve">
<g>
	<path fill="#1197D4" d="M106.646,79.148H54.994c-9.219,0-16.722-7.5-16.722-16.719c0-8.892,6.978-16.185,15.745-16.691
		c-0.072-0.673-0.109-1.346-0.109-2.015c0-10.595,8.621-19.214,19.219-19.214c10.166,0,18.518,7.94,19.173,17.945
		c5.229-0.287,10.149,2.631,12.479,7.224c0.627-0.082,1.249-0.122,1.867-0.122c8.157,0,14.794,6.637,14.794,14.796
		C121.44,72.51,114.804,79.148,106.646,79.148z M54.994,49.024c-7.393,0-13.408,6.012-13.408,13.405
		c0,7.391,6.016,13.405,13.408,13.405h51.652c6.332,0,11.479-5.152,11.479-11.482c0-6.332-5.147-11.481-11.479-11.481
		c-0.817,0-1.659,0.095-2.492,0.28c-0.798,0.175-1.615-0.258-1.908-1.029c-1.451-3.81-5.16-6.372-9.23-6.372
		c-0.676,0-1.358,0.069-2.029,0.208c-0.5,0.105-1.017-0.031-1.407-0.358c-0.386-0.328-0.602-0.817-0.581-1.328l0.016-0.293
		c0.004-0.085,0.013-0.171,0.013-0.256c0-8.767-7.133-15.9-15.899-15.9c-8.771,0-15.904,7.133-15.904,15.9
		c0,1.106,0.119,2.233,0.357,3.345c0.109,0.508-0.024,1.037-0.366,1.43c-0.337,0.394-0.837,0.61-1.358,0.571l-0.215-0.014
		C55.425,49.04,55.213,49.024,54.994,49.024z"/>
	<path fill="#1197D4" d="M60.223,57.291c-0.447,0-0.891-0.179-1.215-0.53c-3.29-3.561-5.1-8.188-5.1-13.038
		c0-10.595,8.621-19.214,19.219-19.214c10.59,0,19.213,8.619,19.213,19.214c0,3.516-0.955,6.954-2.769,9.943
		c-0.474,0.785-1.493,1.031-2.273,0.559c-0.784-0.474-1.032-1.495-0.562-2.275c1.497-2.472,2.29-5.317,2.29-8.227
		c0-8.767-7.133-15.9-15.899-15.9c-8.771,0-15.904,7.133-15.904,15.9c0,4.012,1.496,7.842,4.217,10.787
		c0.622,0.673,0.581,1.72-0.09,2.342C61.028,57.147,60.626,57.291,60.223,57.291z"/>
	<path fill="#1197D4" d="M94.072,62.179c-0.158,0-0.32-0.022-0.479-0.071c-0.878-0.266-1.37-1.191-1.106-2.068
		c1.912-6.271,7.601-10.483,14.16-10.483c0.915,0,1.654,0.742,1.654,1.657s-0.739,1.657-1.654,1.657
		c-5.092,0-9.508,3.269-10.988,8.133C95.443,61.72,94.784,62.179,94.072,62.179z"/>
	<path fill="#1197D4" d="M56.234,106.715c-4.868,0-8.828-3.961-8.828-8.831c0-4.867,3.96-8.828,8.828-8.828
		c4.871,0,8.83,3.961,8.83,8.828C65.064,102.754,61.105,106.715,56.234,106.715z M56.234,92.371c-3.042,0-5.515,2.475-5.515,5.514
		c0,3.042,2.473,5.517,5.515,5.517c3.045,0,5.518-2.475,5.518-5.517C61.752,94.845,59.279,92.371,56.234,92.371z"/>
	<path fill="#1197D4" d="M77.237,123.654c-6.015,0-10.906-4.892-10.906-10.904c0-6.01,4.892-10.904,10.906-10.904
		c6.011,0,10.902,4.894,10.902,10.904C88.14,118.762,83.248,123.654,77.237,123.654z M77.237,105.16
		c-4.188,0-7.592,3.406-7.592,7.59c0,4.187,3.403,7.59,7.592,7.59c4.185,0,7.589-3.403,7.589-7.59
		C84.826,108.565,81.422,105.16,77.237,105.16z"/>
	<path fill="#1197D4" d="M96.424,107.925c-5.205,0-9.439-4.231-9.439-9.435s4.234-9.434,9.439-9.434c5.2,0,9.434,4.231,9.434,9.434
		S101.624,107.925,96.424,107.925z M96.424,92.371c-3.376,0-6.125,2.745-6.125,6.12c0,3.375,2.749,6.12,6.125,6.12
		c3.375,0,6.117-2.745,6.117-6.12C102.541,95.116,99.799,92.371,96.424,92.371z"/>
	<path fill="#1197D4" d="M56.234,92.371c-0.916,0-1.655-0.742-1.655-1.657V77.491c0-0.915,0.739-1.657,1.655-1.657
		c0.914,0,1.658,0.742,1.658,1.657v13.223C57.893,91.628,57.148,92.371,56.234,92.371z"/>
	<path fill="#1197D4" d="M77.237,105.16c-0.915,0-1.659-0.74-1.659-1.657V77.491c0-0.915,0.744-1.657,1.659-1.657
		s1.655,0.742,1.655,1.657v26.012C78.893,104.42,78.152,105.16,77.237,105.16z"/>
	<path fill="#1197D4" d="M96.424,92.371c-0.92,0-1.66-0.742-1.66-1.657V77.491c0-0.915,0.74-1.657,1.66-1.657
		c0.912,0,1.654,0.742,1.654,1.657v13.223C98.078,91.628,97.336,92.371,96.424,92.371z"/>
	<path fill="#1197D4" d="M67.254,89.994c-0.914,0-1.658-0.742-1.658-1.657v-4.754c0-0.915,0.744-1.657,1.658-1.657
		c0.916,0,1.655,0.742,1.655,1.657v4.754C68.909,89.252,68.17,89.994,67.254,89.994z"/>
	<path fill="#1197D4" d="M85.317,88.611c-0.915,0-1.659-0.742-1.659-1.657v-2.853c0-0.915,0.744-1.657,1.659-1.657
		c0.913,0,1.655,0.742,1.655,1.657v2.853C86.973,87.869,86.23,88.611,85.317,88.611z"/>
	<path fill="#1197D4" d="M106.402,88.611c-0.915,0-1.655-0.742-1.655-1.657V83.15c0-0.915,0.74-1.657,1.655-1.657
		s1.659,0.742,1.659,1.657v3.804C108.062,87.869,107.317,88.611,106.402,88.611z"/>
	<path fill="#1197D4" d="M58.397,117.691c-0.915,0-1.659-0.742-1.659-1.657v-5.272c0-0.915,0.744-1.657,1.659-1.657
		s1.655,0.742,1.655,1.657v5.272C60.053,116.949,59.313,117.691,58.397,117.691z"/>
	<path fill="#1197D4" d="M95.297,120.371c-0.915,0-1.655-0.742-1.655-1.657v-4.839c0-0.915,0.74-1.657,1.655-1.657
		s1.659,0.742,1.659,1.657v4.839C96.956,119.628,96.212,120.371,95.297,120.371z"/>
</g>
</svg>
