<?xml version="1.0" encoding="utf-8"?>
<!-- Generator: Adobe Illustrator 16.0.0, SVG Export Plug-In . SVG Version: 6.00 Build 0)  -->
<!DOCTYPE svg PUBLIC "-//W3C//DTD SVG 1.1//EN" "http://www.w3.org/Graphics/SVG/1.1/DTD/svg11.dtd">
<svg version="1.1" id="Capa_1" xmlns="http://www.w3.org/2000/svg" xmlns:xlink="http://www.w3.org/1999/xlink" x="0px" y="0px"
	 width="80px" height="80px" viewBox="0 0 80 80" enable-background="new 0 0 80 80" xml:space="preserve">
<g>
	<path fill="#0098D9" d="M25.566,51.938c-0.05,0-0.1,0-0.149-0.002c-2.117,0.063-4.011-1.248-5.355-3.789
		c-0.874-1.654-1.337-3.612-1.337-5.664v-0.195c0-1.613,0.867-3.096,2.264-3.867c0.989-0.547,2.562-1.198,4.427-1.198
		c1.939,0,3.649,0.844,4.742,1.552c1.255,0.813,2.005,2.199,2.005,3.709c0,2.068-0.47,4.039-1.36,5.705
		C29.492,50.644,27.683,51.938,25.566,51.938z M25.417,50.065c1.506,0.044,2.737-0.886,3.737-2.759
		c0.745-1.396,1.138-3.064,1.138-4.824c0-0.873-0.43-1.674-1.151-2.139c-0.881-0.572-2.242-1.252-3.725-1.252
		c-1.468,0-2.727,0.525-3.523,0.966c-0.801,0.441-1.297,1.296-1.297,2.229v0.195c0,1.748,0.387,3.403,1.12,4.789
		C22.719,49.166,23.969,50.109,25.417,50.065z"/>
	<path fill="#0098D9" d="M24.917,63.352H14.289c-0.252,0-0.493-0.104-0.671-0.283c-0.175-0.18-0.271-0.426-0.263-0.678
		c0.128-4.83,3.194-8.614,6.979-8.614h7.095c0.517,0,0.936,0.418,0.936,0.935c0,0.516-0.419,0.936-0.936,0.936h-7.095
		c-2.481,0-4.608,2.541-5.036,5.834h9.618c0.516,0,0.935,0.418,0.935,0.935S25.433,63.352,24.917,63.352z"/>
	<path fill="#0098D9" d="M20.38,63.352c-0.516,0-0.936-0.42-0.936-0.937v-2.093c0-0.517,0.42-0.937,0.936-0.937
		c0.517,0,0.935,0.42,0.935,0.937v2.093C21.315,62.932,20.896,63.352,20.38,63.352z"/>
	<path fill="#0098D9" d="M41.976,50.018c-0.06,0-0.12,0-0.179-0.003c-2.585,0.083-4.858-1.521-6.494-4.613
		c-1.077-2.034-1.646-4.445-1.646-6.972v-0.244c0-1.932,1.039-3.707,2.709-4.629c1.214-0.67,3.14-1.471,5.422-1.471
		c2.368,0,4.462,1.035,5.802,1.903c1.502,0.974,2.399,2.634,2.399,4.44c0,2.547-0.579,4.975-1.673,7.022
		C46.721,48.442,44.53,50.018,41.976,50.018z M41.797,48.145c1.939,0.054,3.576-1.148,4.872-3.574
		c0.949-1.777,1.451-3.901,1.451-6.141c0-1.172-0.578-2.244-1.547-2.871c-1.128-0.73-2.873-1.602-4.784-1.602
		c-1.883,0-3.496,0.672-4.518,1.236c-1.075,0.594-1.743,1.742-1.743,2.992v0.244c0,2.223,0.493,4.332,1.428,6.098
		C38.255,46.982,39.91,48.201,41.797,48.145z"/>
	<path fill="#0098D9" d="M58.031,51.938c-2.067,0-3.875-1.294-5.188-3.75c-0.889-1.664-1.359-3.637-1.359-5.705
		c0-1.51,0.75-2.896,2.005-3.709c1.092-0.708,2.802-1.552,4.742-1.552c1.866,0,3.438,0.651,4.427,1.198
		c1.396,0.771,2.264,2.254,2.264,3.867v0.195c0,2.052-0.463,4.01-1.338,5.664c-1.345,2.541-3.219,3.848-5.408,3.789
		C58.128,51.938,58.08,51.938,58.031,51.938z M58.231,39.092c-1.482,0-2.846,0.68-3.725,1.252c-0.721,0.465-1.151,1.266-1.151,2.139
		c0,1.762,0.394,3.429,1.139,4.824c1,1.873,2.261,2.791,3.683,2.759c1.515,0.026,2.752-0.899,3.754-2.794
		c0.733-1.386,1.121-3.041,1.121-4.789v-0.195c0-0.934-0.497-1.788-1.296-2.229C60.958,39.617,59.699,39.092,58.231,39.092z"/>
	<path fill="#0098D9" d="M69.359,63.352H58.731c-0.516,0-0.935-0.42-0.935-0.937s0.419-0.935,0.935-0.935h9.618
		c-0.428-3.293-2.555-5.834-5.036-5.834h-7.096c-0.516,0-0.935-0.42-0.935-0.936c0-0.517,0.419-0.935,0.935-0.935h7.096
		c3.785,0,6.851,3.784,6.979,8.614c0.007,0.252-0.088,0.498-0.265,0.678C69.852,63.248,69.611,63.352,69.359,63.352z"/>
	<path fill="#0098D9" d="M63.267,63.352c-0.516,0-0.936-0.42-0.936-0.937v-2.093c0-0.517,0.42-0.937,0.936-0.937
		c0.517,0,0.936,0.42,0.936,0.937v2.093C64.203,62.932,63.784,63.352,63.267,63.352z"/>
	<path fill="#0098D9" d="M55.769,63.352H27.877c-0.253,0-0.494-0.104-0.67-0.283c-0.175-0.18-0.271-0.426-0.264-0.678
		c0.158-5.912,3.888-10.542,8.492-10.542h12.777c4.604,0,8.334,4.63,8.492,10.542c0.007,0.252-0.088,0.498-0.265,0.678
		C56.264,63.248,56.022,63.352,55.769,63.352z M28.876,61.48h25.895c-0.468-4.359-3.272-7.762-6.559-7.762H35.435
		C32.149,53.719,29.345,57.121,28.876,61.48z"/>
	<path fill="#0098D9" d="M35.492,63.352c-0.516,0-0.935-0.42-0.935-0.937v-2.617c0-0.517,0.419-0.936,0.935-0.936
		s0.935,0.419,0.935,0.936v2.617C36.427,62.932,36.008,63.352,35.492,63.352z"/>
	<path fill="#0098D9" d="M48.155,63.352c-0.516,0-0.935-0.42-0.935-0.937v-2.617c0-0.517,0.419-0.936,0.935-0.936
		s0.935,0.419,0.935,0.936v2.617C49.09,62.932,48.671,63.352,48.155,63.352z"/>
	<path fill="#0098D9" d="M70.672,63.352H12.974c-0.516,0-0.934-0.42-0.934-0.937s0.418-0.935,0.934-0.935h57.699
		c0.517,0,0.936,0.418,0.936,0.935S71.189,63.352,70.672,63.352z"/>
	<path fill="#0098D9" d="M60.317,35.367c-0.185,0-0.368-0.054-0.527-0.16l-2.922-1.989h-4.554c-1.352,0-2.452-1.101-2.452-2.452
		v-3.541c0-1.352,1.101-2.453,2.452-2.453h6.485c1.353,0,2.454,1.102,2.454,2.453v7.209c0,0.346-0.191,0.663-0.498,0.826
		C60.617,35.333,60.466,35.367,60.317,35.367z M52.314,26.643c-0.32,0-0.582,0.26-0.582,0.582v3.541
		c0,0.321,0.262,0.582,0.582,0.582h4.842c0.187,0,0.371,0.057,0.525,0.162l1.701,1.156v-5.441c0-0.322-0.261-0.582-0.583-0.582
		H52.314z"/>
	<path fill="#0098D9" d="M22.819,35.367c-0.15,0-0.301-0.034-0.438-0.107c-0.306-0.163-0.497-0.48-0.497-0.826v-7.209
		c0-1.352,1.101-2.453,2.452-2.453h6.485c1.353,0,2.453,1.102,2.453,2.453v3.541c0,1.352-1.1,2.452-2.453,2.452h-4.552l-2.924,1.989
		C23.186,35.313,23.002,35.367,22.819,35.367z M24.335,26.643c-0.321,0-0.582,0.26-0.582,0.582v5.441l1.7-1.156
		c0.156-0.105,0.338-0.162,0.526-0.162h4.84c0.322,0,0.583-0.261,0.583-0.582v-3.541c0-0.322-0.261-0.582-0.583-0.582H24.335z"/>
	<path fill="#0098D9" d="M41.567,31.162c-0.296,0-0.577-0.139-0.753-0.381l-2.032-2.758h-1.359c-1.352,0-2.452-1.1-2.452-2.454
		v-5.226c0-1.352,1.101-2.453,2.452-2.453h8.288c1.353,0,2.452,1.102,2.452,2.453v5.226c0,1.354-1.1,2.454-2.452,2.454h-1.475
		l-1.9,2.738c-0.173,0.247-0.454,0.396-0.755,0.4C41.576,31.162,41.572,31.162,41.567,31.162z M37.423,19.761
		c-0.32,0-0.582,0.262-0.582,0.583v5.226c0,0.321,0.262,0.583,0.582,0.583h1.832c0.297,0,0.578,0.141,0.753,0.381l1.538,2.086
		l1.435-2.064c0.174-0.253,0.461-0.402,0.768-0.402h1.964c0.32,0,0.582-0.262,0.582-0.583v-5.226c0-0.321-0.261-0.583-0.582-0.583
		H37.423z"/>
	<path fill="#0098D9" d="M43.19,23.418h-3.245c-0.517,0-0.936-0.419-0.936-0.936c0-0.516,0.419-0.936,0.936-0.936h3.245
		c0.518,0,0.936,0.42,0.936,0.936C44.125,22.999,43.708,23.418,43.19,23.418z"/>
	<path fill="#0098D9" d="M57.18,30.016h-3.245c-0.518,0-0.935-0.42-0.935-0.938c0-0.516,0.417-0.934,0.935-0.934h3.245
		c0.516,0,0.935,0.418,0.935,0.934C58.115,29.596,57.696,30.016,57.18,30.016z"/>
	<path fill="#0098D9" d="M29.022,30.016h-3.245c-0.517,0-0.936-0.42-0.936-0.938c0-0.516,0.419-0.934,0.936-0.934h3.245
		c0.517,0,0.936,0.418,0.936,0.934C29.958,29.596,29.539,30.016,29.022,30.016z"/>
</g>
</svg>
