<?xml version="1.0" encoding="utf-8"?>
<!-- Generator: Adobe Illustrator 16.0.0, SVG Export Plug-In . SVG Version: 6.00 Build 0)  -->
<!DOCTYPE svg PUBLIC "-//W3C//DTD SVG 1.1//EN" "http://www.w3.org/Graphics/SVG/1.1/DTD/svg11.dtd">
<svg version="1.1" id="Capa_1" xmlns="http://www.w3.org/2000/svg" xmlns:xlink="http://www.w3.org/1999/xlink" x="0px" y="0px"
	 width="80px" height="80px" viewBox="0 0 80 80" enable-background="new 0 0 80 80" xml:space="preserve">
<g>
	<path fill="#0098D9" d="M27.073,27.957c-3.054,0-5.537-2.484-5.537-5.537c0-3.054,2.483-5.538,5.537-5.538
		c3.053,0,5.537,2.484,5.537,5.538C32.61,25.473,30.126,27.957,27.073,27.957z M27.073,18.474c-2.176,0-3.945,1.771-3.945,3.946
		s1.77,3.945,3.945,3.945c2.175,0,3.945-1.77,3.945-3.945S29.248,18.474,27.073,18.474z"/>
	<path fill="#0098D9" d="M33.668,66.74h-8.231c-0.439,0-0.796-0.356-0.796-0.796V49.073c-1.143-0.405-2.048-1.623-2.048-2.929v-13.6
		c0-2.038,1.659-3.697,3.698-3.697h1.382c1.611,0,2.923,1.312,2.923,2.923v1.16l4.147,3.655h6.739c1.569,0,2.844,1.275,2.844,2.845
		c0,1.567-1.275,2.844-2.844,2.844h-7.813c-0.693,0-1.362-0.253-1.882-0.711l-1.191-1.05v20.728h0.417
		c1.902,0,3.451,1.548,3.451,3.451v1.252C34.464,66.384,34.107,66.74,33.668,66.74z M26.232,65.148h6.64v-0.456
		c0-1.025-0.834-1.859-1.859-1.859H29.8c-0.439,0-0.796-0.356-0.796-0.796V38.751c0-0.313,0.184-0.598,0.469-0.726
		c0.285-0.129,0.619-0.079,0.853,0.128l2.514,2.217c0.229,0.201,0.523,0.313,0.829,0.313h7.813c0.691,0,1.253-0.562,1.253-1.252
		c0-0.691-0.562-1.253-1.253-1.253h-7.039c-0.194,0-0.382-0.071-0.526-0.199l-4.643-4.092c-0.171-0.151-0.27-0.369-0.27-0.597v-1.52
		c0-0.734-0.597-1.331-1.331-1.331h-1.382c-1.162,0-2.106,0.944-2.106,2.105v13.6c0,0.853,0.751,1.476,1.258,1.479
		c0.438,0.003,0.79,0.358,0.79,0.796V65.148z"/>
	<path fill="#0098D9" d="M57.778,66.74h-34.39c-0.439,0-0.796-0.356-0.796-0.796s0.356-0.796,0.796-0.796h34.39
		c0.439,0,0.795,0.356,0.795,0.796S58.218,66.74,57.778,66.74z"/>
	<path fill="#0098D9" d="M31.02,40.621c-0.188,0-0.375-0.065-0.527-0.199l-3.331-2.937c-0.331-0.29-0.362-0.793-0.071-1.123
		s0.793-0.362,1.123-0.07l3.331,2.937c0.33,0.29,0.362,0.793,0.071,1.122C31.459,40.529,31.239,40.621,31.02,40.621z"/>
	<path fill="#0098D9" d="M57.778,44.938H33.46c-0.439,0-0.796-0.355-0.796-0.796c0-0.439,0.356-0.795,0.796-0.795h23.521V23.04
		H35.539c-0.439,0-0.796-0.356-0.796-0.796s0.357-0.796,0.796-0.796h22.239c0.439,0,0.795,0.356,0.795,0.796v21.897
		C58.573,44.582,58.218,44.938,57.778,44.938z"/>
	<path fill="#0098D9" d="M46.59,47.527h-8.391c-0.439,0-0.796-0.356-0.796-0.796v-2.59c0-0.439,0.356-0.795,0.796-0.795h8.391
		c0.44,0,0.796,0.355,0.796,0.795v2.59C47.386,47.171,47.03,47.527,46.59,47.527z M38.995,45.936h6.799v-0.998h-6.799V45.936z"/>
	<path fill="#0098D9" d="M44.196,62.404h-3.603c-0.439,0-0.796-0.356-0.796-0.796V46.731c0-0.439,0.356-0.796,0.796-0.796h3.603
		c0.439,0,0.794,0.356,0.794,0.796v14.877C44.991,62.048,44.636,62.404,44.196,62.404z M41.39,60.813H43.4V47.527H41.39V60.813z"/>
	<path fill="#0098D9" d="M47.809,66.74H36.981c-0.439,0-0.796-0.356-0.796-0.796v-4.336c0-0.439,0.356-0.796,0.796-0.796h10.827
		c0.439,0,0.796,0.356,0.796,0.796v4.336C48.604,66.384,48.248,66.74,47.809,66.74z M37.777,65.148h9.235v-2.744h-9.235V65.148z"/>
	<path fill="#0098D9" d="M45.713,37.258c-0.229,0-0.454-0.097-0.611-0.286c-0.282-0.337-0.236-0.839,0.101-1.121
		c3.536-2.951,5.824-6.47,6.803-10.454c0.097-0.391,0.469-0.646,0.869-0.601c0.399,0.048,0.7,0.388,0.7,0.79v5.248
		c0,0.439-0.356,0.796-0.796,0.796s-0.796-0.356-0.796-0.796v-0.831c-1.326,2.609-3.252,4.976-5.761,7.07
		C46.073,37.196,45.893,37.258,45.713,37.258z"/>
	<path fill="#0098D9" d="M49.349,30.045c-0.286,0-0.563-0.155-0.705-0.426c-0.204-0.39-0.054-0.87,0.335-1.075
		c0.718-0.377,2.661-1.679,3.027-3.15c0.105-0.427,0.534-0.688,0.965-0.58c0.426,0.106,0.687,0.538,0.58,0.965
		c-0.615,2.471-3.704,4.107-3.835,4.177C49.599,30.016,49.473,30.045,49.349,30.045z"/>
	<path fill="#0098D9" d="M45.459,31.576h-9.912c-0.439,0-0.796-0.356-0.796-0.796v-3.619c0-0.439,0.356-0.796,0.796-0.796h9.912
		c0.439,0,0.796,0.356,0.796,0.796v3.619C46.255,31.22,45.898,31.576,45.459,31.576z M36.343,29.984h8.32v-2.027h-8.32V29.984z"/>
	<path fill="#0098D9" d="M43.271,34.957h-7.724c-0.439,0-0.796-0.356-0.796-0.796s0.356-0.796,0.796-0.796h7.724
		c0.439,0,0.796,0.356,0.796,0.796S43.71,34.957,43.271,34.957z"/>
</g>
</svg>
