<?xml version="1.0" encoding="utf-8"?>
<!-- Generator: Adobe Illustrator 16.0.0, SVG Export Plug-In . SVG Version: 6.00 Build 0)  -->
<!DOCTYPE svg PUBLIC "-//W3C//DTD SVG 1.1//EN" "http://www.w3.org/Graphics/SVG/1.1/DTD/svg11.dtd">
<svg version="1.1" id="Capa_1" xmlns="http://www.w3.org/2000/svg" xmlns:xlink="http://www.w3.org/1999/xlink" x="0px" y="0px"
	 width="80px" height="80px" viewBox="0 0 80 80" enable-background="new 0 0 80 80" xml:space="preserve">
<g>
	<path fill="#0098D9" d="M26.213,25.14c-2.957,0-5.36-2.403-5.36-5.359s2.404-5.36,5.36-5.36c2.956,0,5.361,2.404,5.361,5.36
		S29.168,25.14,26.213,25.14z M26.213,16.226c-1.96,0-3.555,1.594-3.555,3.555c0,1.96,1.594,3.554,3.555,3.554
		c1.959,0,3.554-1.594,3.554-3.554C29.767,17.819,28.172,16.226,26.213,16.226z"/>
	<path fill="#0098D9" d="M33.178,66.146h-8.693c-0.5,0-0.903-0.404-0.903-0.902v-17.77c-1.224-0.442-2.164-1.727-2.164-3.145V29.967
		c0-2.188,1.778-3.968,3.967-3.968h1.342c1.802,0,3.269,1.467,3.269,3.269v1.078l4.342,3.826h7.094c1.69,0,3.066,1.376,3.066,3.066
		s-1.376,3.066-3.066,3.066h-8.253c-0.747,0-1.468-0.272-2.028-0.767l-1.154-1.019v21.693h0.378c2.045,0,3.708,1.664,3.708,3.708
		v1.323C34.082,65.742,33.677,66.146,33.178,66.146z M25.388,64.341h6.888v-0.42c0-1.049-0.853-1.901-1.902-1.901h-1.28
		c-0.499,0-0.903-0.404-0.903-0.904V36.521c0-0.354,0.209-0.676,0.531-0.821c0.324-0.148,0.703-0.09,0.968,0.145l2.655,2.341
		c0.23,0.202,0.527,0.314,0.834,0.314h8.253c0.695,0,1.261-0.565,1.261-1.261s-0.566-1.261-1.261-1.261h-7.435
		c-0.219,0-0.432-0.079-0.597-0.226l-4.903-4.322c-0.196-0.171-0.306-0.417-0.306-0.676v-1.486c0-0.807-0.656-1.463-1.463-1.463
		h-1.342c-1.191,0-2.161,0.971-2.161,2.162V44.33c0,0.865,0.757,1.498,1.267,1.5c0.496,0.004,0.897,0.408,0.897,0.904V64.341z"/>
	<path fill="#0098D9" d="M29.093,37.424c-0.213,0-0.426-0.074-0.597-0.225l-2.342-2.065c-0.375-0.33-0.41-0.899-0.08-1.274
		s0.9-0.41,1.273-0.08l2.341,2.064c0.376,0.329,0.411,0.9,0.081,1.273C29.591,37.32,29.342,37.424,29.093,37.424z"/>
	<path fill="#0098D9" d="M49.751,66.146h-5.148c-1.48,0-2.683-1.203-2.683-2.684V59.82l-2.577,2.575
		c-1.015,1.014-2.78,1.015-3.794,0l-3.642-3.64c-0.506-0.508-0.785-1.182-0.785-1.896c0-0.719,0.279-1.392,0.785-1.898l2.577-2.576
		h-3.644c-1.48,0-2.683-1.204-2.683-2.684v-5.148c0-1.479,1.203-2.683,2.683-2.683h4.892c0.499,0,0.903,0.404,0.903,0.903
		c0,0.498-0.404,0.902-0.903,0.902h-4.892c-0.484,0-0.877,0.393-0.877,0.877v5.148c0,0.484,0.393,0.878,0.877,0.878h4.892
		c0.375,0,0.711,0.231,0.844,0.584c0.078,0.206,0.16,0.409,0.25,0.611c0.152,0.341,0.079,0.742-0.186,1.007l-3.456,3.457
		c-0.166,0.166-0.257,0.386-0.257,0.621c0,0.233,0.091,0.453,0.257,0.62l3.642,3.64c0.331,0.332,0.908,0.332,1.24,0l3.456-3.456
		c0.265-0.266,0.668-0.339,1.01-0.185c0.201,0.09,0.406,0.172,0.612,0.251c0.35,0.134,0.58,0.468,0.58,0.842v4.892
		c0,0.483,0.394,0.878,0.878,0.878h5.148c0.483,0,0.877-0.395,0.877-0.878v-4.892c0-0.374,0.232-0.708,0.581-0.843
		c0.207-0.078,0.412-0.16,0.612-0.25c0.342-0.154,0.744-0.081,1.009,0.185l3.457,3.456c0.342,0.342,0.898,0.342,1.24,0l3.642-3.64
		c0.341-0.344,0.341-0.899,0-1.241l-3.456-3.457c-0.266-0.265-0.339-0.666-0.187-1.007c0.091-0.202,0.172-0.407,0.251-0.614
		c0.133-0.35,0.469-0.581,0.843-0.581h4.891c0.485,0,0.878-0.394,0.878-0.878v-5.148c0-0.484-0.393-0.877-0.878-0.877h-4.891
		c-0.375,0-0.71-0.232-0.843-0.58c-0.079-0.207-0.161-0.414-0.251-0.615c-0.153-0.342-0.08-0.742,0.187-1.008l3.456-3.457
		c0.341-0.341,0.341-0.898-0.001-1.24l-3.641-3.641c-0.342-0.341-0.898-0.341-1.24,0l-3.457,3.457
		c-0.265,0.266-0.667,0.339-1.009,0.185c-0.2-0.09-0.404-0.171-0.611-0.249c-0.35-0.135-0.582-0.47-0.582-0.844v-4.893
		c0-0.484-0.394-0.877-0.877-0.877h-5.148c-0.484,0-0.878,0.393-0.878,0.877v1.172c0,0.499-0.404,0.902-0.902,0.902
		c-0.499,0-0.903-0.403-0.903-0.902v-1.172c0-1.479,1.203-2.683,2.683-2.683h5.148c1.479,0,2.683,1.203,2.683,2.683v3.645
		l2.577-2.576c1.046-1.046,2.747-1.046,3.794,0l3.642,3.64c1.044,1.046,1.044,2.749,0,3.794l-2.578,2.577h3.644
		c1.48,0,2.684,1.204,2.684,2.683v5.148c0,1.479-1.203,2.684-2.684,2.684h-3.644l2.578,2.576c1.044,1.046,1.044,2.748,0,3.795
		l-3.642,3.64c-1.047,1.047-2.748,1.047-3.794,0l-2.577-2.577v3.645C52.435,64.943,51.23,66.146,49.751,66.146z"/>
	<path fill="#0098D9" d="M47.177,54.574c-4.107,0-7.448-3.34-7.448-7.447c0-4.105,3.341-7.447,7.448-7.447
		c4.106,0,7.448,3.342,7.448,7.447C54.625,51.234,51.284,54.574,47.177,54.574z M47.177,41.485c-3.112,0-5.644,2.53-5.644,5.642
		s2.532,5.643,5.644,5.643c3.111,0,5.643-2.531,5.643-5.643S50.289,41.485,47.177,41.485z"/>
	<path fill="#0098D9" d="M65.293,66.146H20.254c-0.499,0-0.903-0.404-0.903-0.902c0-0.499,0.404-0.903,0.903-0.903h45.039
		c0.499,0,0.903,0.404,0.903,0.903C66.196,65.742,65.792,66.146,65.293,66.146z"/>
	<path fill="#0098D9" d="M38.381,22.541c-0.498,0-0.902-0.403-0.902-0.902v-1.203c0-0.498,0.404-0.902,0.902-0.902
		c0.499,0,0.903,0.404,0.903,0.902v1.203C39.285,22.138,38.88,22.541,38.381,22.541z"/>
	<path fill="#0098D9" d="M38.381,26.706c-0.498,0-0.902-0.405-0.902-0.904V24.6c0-0.499,0.404-0.902,0.902-0.902
		c0.499,0,0.903,0.403,0.903,0.902v1.202C39.285,26.301,38.88,26.706,38.381,26.706z"/>
	<path fill="#0098D9" d="M41.065,24.021h-1.202c-0.5,0-0.903-0.404-0.903-0.902s0.403-0.902,0.903-0.902h1.202
		c0.498,0,0.902,0.404,0.902,0.902S41.563,24.021,41.065,24.021z"/>
	<path fill="#0098D9" d="M36.901,24.021h-1.202c-0.499,0-0.903-0.404-0.903-0.902s0.404-0.902,0.903-0.902h1.202
		c0.499,0,0.903,0.404,0.903,0.902S37.4,24.021,36.901,24.021z"/>
	<path fill="#0098D9" d="M53.759,18.871c-0.498,0-0.902-0.402-0.902-0.9v-1.203c0-0.499,0.404-0.903,0.902-0.903
		c0.499,0,0.903,0.404,0.903,0.903v1.203C54.663,18.469,54.258,18.871,53.759,18.871z"/>
	<path fill="#0098D9" d="M53.759,23.035c-0.498,0-0.902-0.404-0.902-0.902V20.93c0-0.498,0.404-0.901,0.902-0.901
		c0.499,0,0.903,0.403,0.903,0.901v1.203C54.663,22.631,54.258,23.035,53.759,23.035z"/>
	<path fill="#0098D9" d="M56.442,20.354h-1.204c-0.498,0-0.902-0.404-0.902-0.903s0.404-0.901,0.902-0.901h1.204
		c0.498,0,0.903,0.402,0.903,0.901S56.94,20.354,56.442,20.354z"/>
	<path fill="#0098D9" d="M52.28,20.354h-1.203c-0.499,0-0.903-0.404-0.903-0.903s0.405-0.901,0.903-0.901h1.203
		c0.498,0,0.901,0.402,0.901,0.901S52.778,20.354,52.28,20.354z"/>
</g>
</svg>
