<?xml version="1.0" encoding="utf-8"?>
<!-- Generator: Adobe Illustrator 24.1.2, SVG Export Plug-In . SVG Version: 6.00 Build 0)  -->
<svg version="1.1" id="Capa_1" xmlns="http://www.w3.org/2000/svg" xmlns:xlink="http://www.w3.org/1999/xlink" x="0px" y="0px"
	 viewBox="0 0 136 42" style="enable-background:new 0 0 136 42;" xml:space="preserve">
<style type="text/css">
	.st0{fill:#004987;}
</style>
<g>
	<path class="st0" d="M47.77,31.4l-0.04-14.71l-5,12.26h-4.82l-5-12.26V31.4h-6.49V6.55h7.9l5.99,13.75l5.99-13.75h7.9V31.4H47.77z"
		/>
	<path class="st0" d="M65.09,27.43L63.6,31.4h-7.59l10.6-24.85h7.58L84.45,31.4h-7.87l-1.45-3.97H65.09z M70.2,13.92l-3.05,8.12
		h6.03L70.2,13.92z"/>
	<path class="st0" d="M96.42,22.33l-2.8,3.12v5.96h-7.37V6.55h7.37v9.57l8.33-9.57h8.51l-9,10.1l9.57,14.75h-8.83L96.42,22.33z"/>
	<path class="st0" d="M120.59,12.22v3.9h11.73v5.67h-11.73v3.94h13.29v5.67h-20.67V6.55h20.31v5.67H120.59z"/>
</g>
<g>
	<path class="st0" d="M90.78,34.07l-0.54,1.13c-0.6-0.35-1.35-0.59-1.82-0.59c-0.37,0-0.62,0.14-0.62,0.41c0,0.98,3,0.42,3,2.47
		c0,1.13-1,1.73-2.27,1.73c-0.95,0-1.92-0.36-2.59-0.91l0.56-1.11c0.58,0.51,1.46,0.85,2.05,0.85c0.45,0,0.74-0.17,0.74-0.49
		c0-1-3-0.41-3-2.42c0-1.04,0.9-1.71,2.26-1.71C89.37,33.44,90.2,33.69,90.78,34.07z"/>
	<path class="st0" d="M97.35,36.33c0,1.65-1.31,2.91-3.07,2.91c-1.75,0-3.06-1.25-3.06-2.91c0-1.65,1.31-2.88,3.06-2.88
		C96.04,33.46,97.35,34.69,97.35,36.33z M92.69,36.34c0,0.96,0.74,1.69,1.6,1.69c0.88,0,1.57-0.74,1.57-1.69s-0.7-1.68-1.57-1.68
		S92.69,35.39,92.69,36.34z"/>
	<path class="st0" d="M99.56,34.64v1.31h2.54v1.13h-2.54v2.09h-1.44v-5.67h4.21v1.13H99.56z"/>
	<path class="st0" d="M106.12,34.67v4.51h-1.44v-4.51h-1.69V33.5h4.85v1.17H106.12z"/>
	<path class="st0" d="M113.83,39.18l-1.05-3.92l-1.07,3.92h-1.49l-1.86-5.67h1.54l1.11,4.17l1.09-4.17h1.41l1.11,4.17l1.09-4.17
		h1.47l-1.87,5.67H113.83z"/>
	<path class="st0" d="M118.55,38.13l-0.41,1.04h-1.48l2.45-5.67h1.48l2.39,5.67h-1.54l-0.41-1.04H118.55z M119.8,34.94l-0.83,2.1
		h1.64L119.8,34.94z"/>
	<path class="st0" d="M126.08,37.58h-0.04h-1.09v1.6h-1.44v-5.67h2.54c1.5,0,2.36,0.71,2.36,1.98c0,0.87-0.36,1.49-1.03,1.82
		l1.19,1.87h-1.64L126.08,37.58z M126.04,36.45c0.62,0,0.99-0.32,0.99-0.92c0-0.59-0.36-0.89-0.99-0.89h-1.09v1.81H126.04z"/>
	<path class="st0" d="M130.82,34.64v1.13h2.71v1.13h-2.71v1.14h3.09v1.13h-4.53v-5.67h4.44v1.13H130.82z"/>
</g>
<g>
	<path class="st0" d="M23.38,18.4c-0.41-0.97-0.84-1.94-1.26-2.91c-0.57-1.32-1.14-2.64-1.71-3.96c-0.47-1.1-0.95-2.19-1.42-3.28
		c-0.21-0.48-0.42-0.97-0.64-1.45c-0.09-0.2-0.26-0.34-0.49-0.35c-0.23-0.01-0.38,0.15-0.49,0.33c-0.02,0.04-0.04,0.07-0.05,0.11
		c-0.44,1.1-0.88,2.2-1.32,3.3c-0.55,1.38-1.11,2.77-1.66,4.15c-0.51,1.28-1.01,2.56-1.53,3.83c-0.16,0.39-0.23,0.79-0.11,1.2
		c0.05,0.19,0.14,0.38,0.21,0.57c0.47,1.18,0.95,2.37,1.42,3.55c0.39,0.98,0.78,1.95,1.17,2.93c0.44,1.09,0.87,2.18,1.31,3.28
		c0.18,0.45,0.35,0.9,0.55,1.34c0.09,0.2,0.25,0.35,0.48,0.37c0.25,0,0.38-0.14,0.49-0.31c0.03-0.04,0.05-0.09,0.07-0.13
		c0.49-1.13,0.97-2.25,1.46-3.38c0.57-1.32,1.14-2.64,1.72-3.95c0.54-1.25,1.08-2.5,1.62-3.75C23.33,19.57,23.66,19.05,23.38,18.4
		 M22.65,19.19c-0.76,1.76-1.53,3.52-2.29,5.27c-0.7,1.61-1.39,3.21-2.09,4.82c-0.13,0.29-0.25,0.59-0.38,0.88
		c-0.01,0.03-0.03,0.02-0.04,0c-0.05-0.11-0.09-0.21-0.14-0.32c-0.43-1.06-0.85-2.12-1.27-3.19c-0.47-1.19-0.95-2.38-1.42-3.57
		c-0.42-1.05-0.84-2.1-1.26-3.15c-0.1-0.25-0.2-0.51-0.3-0.76c-0.09-0.21-0.04-0.41,0.04-0.61c0.68-1.68,1.35-3.36,2.02-5.04
		c0.64-1.59,1.27-3.19,1.91-4.79c0.13-0.33,0.26-0.65,0.39-0.98c0.06-0.12,0.05-0.16,0.07-0.13c0.1,0.23,0.19,0.44,0.28,0.64
		c0.66,1.51,1.31,3.02,1.97,4.53c0.62,1.43,1.24,2.86,1.86,4.3c0.22,0.51,0.44,1.02,0.66,1.53C22.73,18.84,22.73,19.01,22.65,19.19"
		/>
	<path class="st0" d="M8.68,25.94c-0.21-0.09-0.42-0.01-0.52,0.23c-0.51,1.18-1.02,2.36-1.53,3.53c-0.07,0.15-0.14,0.32-0.22,0.49
		c-0.04-0.07-0.06-0.1-0.07-0.14c-0.73-1.82-1.46-3.63-2.18-5.45c-0.71-1.78-1.42-3.56-2.13-5.34c-0.08-0.2-0.11-0.4-0.03-0.61
		c0.44-1.09,0.87-2.18,1.31-3.28c0.5-1.26,1-2.52,1.51-3.77c0.44-1.1,0.88-2.21,1.33-3.31C6.21,8.09,6.3,7.88,6.38,7.68
		c0.01,0,0.03,0,0.04,0C6.47,7.8,6.53,7.91,6.58,8.03c0.53,1.22,1.06,2.44,1.59,3.66c0.09,0.21,0.32,0.31,0.51,0.22
		c0.21-0.09,0.29-0.31,0.2-0.53c-0.53-1.22-1.06-2.44-1.58-3.66C7.16,7.41,7.04,7.09,6.88,6.78C6.65,6.34,6.2,6.33,5.92,6.75
		C5.89,6.79,5.87,6.84,5.85,6.89C5.66,7.35,5.48,7.82,5.29,8.28c-0.49,1.23-0.98,2.45-1.47,3.68c-0.46,1.14-0.91,2.28-1.37,3.42
		c-0.38,0.94-0.75,1.88-1.13,2.81c-0.18,0.44-0.22,0.88-0.04,1.34c0.44,1.1,0.88,2.21,1.33,3.31c0.42,1.06,0.85,2.12,1.27,3.17
		c0.44,1.09,0.87,2.19,1.31,3.28c0.23,0.58,0.46,1.15,0.69,1.72c0.09,0.21,0.26,0.37,0.49,0.38c0.03,0,0.06,0,0.08,0
		c0.01,0,0.02,0,0.03-0.01c0.02,0,0.03-0.01,0.05-0.01c0.01,0,0.02-0.01,0.03-0.01c0.01,0,0.03-0.01,0.04-0.02
		c0.01-0.01,0.02-0.01,0.03-0.02c0.01-0.01,0.02-0.01,0.04-0.02c0.01-0.01,0.02-0.01,0.03-0.02c0.01-0.01,0.02-0.02,0.03-0.03
		c0.01-0.01,0.02-0.02,0.02-0.03c0.01-0.01,0.02-0.02,0.03-0.03c0.01-0.01,0.02-0.02,0.02-0.03c0.01-0.01,0.02-0.02,0.03-0.03
		c0.01-0.01,0.01-0.02,0.02-0.03c0.01-0.01,0.01-0.02,0.02-0.03c0,0,0,0,0-0.01c0,0,0.01-0.01,0.01-0.01c0,0,0,0,0-0.01
		C6.9,31.03,6.91,31,6.92,30.98c0.14-0.33,0.28-0.65,0.43-0.98c0.51-1.17,1.02-2.35,1.52-3.52C8.97,26.24,8.9,26.03,8.68,25.94"/>
	<path class="st0" d="M14.39,25.94c-0.21-0.09-0.42-0.01-0.52,0.23c-0.51,1.18-1.02,2.36-1.53,3.53c-0.07,0.16-0.14,0.32-0.22,0.5
		c-0.04-0.07-1.53-3.78-2.25-5.59c-0.71-1.78-1.42-3.56-2.13-5.34c-0.08-0.2-0.11-0.4-0.03-0.61c0.44-1.09,0.87-2.18,1.31-3.28
		c0.5-1.26,1-2.52,1.51-3.77c0.44-1.1,0.88-2.21,1.33-3.31c0.09-0.22,0.18-0.44,0.27-0.66c0.06,0.13,0.12,0.27,0.18,0.4
		c0.53,1.22,1.06,2.44,1.59,3.66c0.09,0.21,0.31,0.31,0.51,0.22c0.21-0.09,0.29-0.31,0.2-0.53c-0.53-1.22-1.06-2.44-1.58-3.66
		c-0.14-0.31-0.26-0.64-0.42-0.94c-0.23-0.44-0.68-0.45-0.95-0.03c-0.03,0.04-0.05,0.09-0.08,0.14c-0.19,0.46-0.37,0.93-0.56,1.39
		c-0.49,1.23-0.98,2.45-1.47,3.68c-0.46,1.14-0.91,2.28-1.37,3.42c-0.38,0.94-0.75,1.88-1.13,2.81c-0.18,0.44-0.22,0.88-0.04,1.34
		c0.44,1.1,0.88,2.21,1.33,3.31c0.42,1.06,0.85,2.12,1.27,3.17c0.44,1.09,0.87,2.19,1.31,3.28c0.23,0.58,0.46,1.15,0.69,1.72
		c0.09,0.21,0.25,0.37,0.49,0.38c0.25,0,0.41-0.15,0.5-0.32c0.02-0.04,0.04-0.07,0.05-0.1c0.14-0.33,0.28-0.65,0.42-0.98
		c0.51-1.17,1.02-2.35,1.52-3.52C14.69,26.24,14.61,26.03,14.39,25.94"/>
</g>
</svg>
