<?xml version="1.0" encoding="utf-8"?>
<!-- Generator: Adobe Illustrator 16.0.0, SVG Export Plug-In . SVG Version: 6.00 Build 0)  -->
<!DOCTYPE svg PUBLIC "-//W3C//DTD SVG 1.1//EN" "http://www.w3.org/Graphics/SVG/1.1/DTD/svg11.dtd">
<svg version="1.1" id="Capa_1" xmlns="http://www.w3.org/2000/svg" xmlns:xlink="http://www.w3.org/1999/xlink" x="0px" y="0px"
	 width="190.252px" height="190.252px" viewBox="0 0 190.252 190.252" enable-background="new 0 0 190.252 190.252"
	 xml:space="preserve">
<circle fill="#96CAE3" cx="95.778" cy="94.601" r="80.525"/>
<g>
	<path fill-rule="evenodd" clip-rule="evenodd" fill="#1197D4" d="M82.685,74.614c2.598-0.033,4.932,0.638,7.229,1.452
		c1.403,0.488,2.794,1.006,4.237,1.375c2.595,0.646,5.1,0.398,7.588-0.551c1.766-0.671,3.53-1.381,5.381-1.804
		c5.57-1.285,10.576-0.016,15.07,3.424c1.228,0.934,2.346,1.995,3.334,3.176c0.391,0.461,0.374,0.567-0.143,0.893
		c-4.656,2.851-7.376,6.976-7.856,12.419c-0.442,5.061,1.11,9.497,4.632,13.208c1.533,1.604,3.335,2.818,5.38,3.68
		c0.565,0.232,0.599,0.319,0.351,0.878c-2.282,5.274-5.299,10.119-9.068,14.452c-1.294,1.484-2.762,2.802-4.502,3.768
		c-2.729,1.517-5.539,1.533-8.377,0.335c-1.176-0.494-2.298-1.11-3.514-1.5c-3.916-1.252-7.779-1.086-11.581,0.472
		c-0.997,0.415-1.969,0.876-2.985,1.252c-3.676,1.348-6.974,0.519-9.982-1.86c-1.834-1.452-3.335-3.208-4.718-5.075
		c-3.184-4.294-5.688-8.946-7.381-14.023c-1.216-3.631-1.979-7.342-2.188-11.173c-0.24-4.19,0.098-8.34,1.781-12.228
		c2.64-6.089,7.124-10.215,13.558-12.089C80.191,74.734,81.484,74.567,82.685,74.614z"/>
	<path fill-rule="evenodd" clip-rule="evenodd" fill="#1197D4" d="M110.186,58.724c-0.032,3.59-1.15,6.608-2.984,9.361
		c-2.082,3.121-4.917,5.292-8.491,6.45c-1.094,0.352-2.212,0.565-3.371,0.551c-0.459,0-0.622-0.185-0.667-0.624
		c-0.288-2.617,0.293-5.067,1.403-7.389c2.188-4.629,5.795-7.655,10.553-9.371c0.955-0.333,1.943-0.519,2.952-0.677
		c0.431-0.073,0.517,0.207,0.54,0.51C110.153,58.006,110.227,58.484,110.186,58.724z"/>
</g>
</svg>
