<?xml version="1.0" encoding="utf-8"?>
<!-- Generator: Adobe Illustrator 16.0.0, SVG Export Plug-In . SVG Version: 6.00 Build 0)  -->
<!DOCTYPE svg PUBLIC "-//W3C//DTD SVG 1.1//EN" "http://www.w3.org/Graphics/SVG/1.1/DTD/svg11.dtd">
<svg version="1.1" id="Capa_1" xmlns="http://www.w3.org/2000/svg" xmlns:xlink="http://www.w3.org/1999/xlink" x="0px" y="0px"
	 width="190.252px" height="190.252px" viewBox="0 0 190.252 190.252" enable-background="new 0 0 190.252 190.252"
	 xml:space="preserve">
<circle fill="#96CAE3" cx="93.778" cy="94.69" r="80.525"/>
<g>
	<path fill-rule="evenodd" clip-rule="evenodd" fill="#1197D4" d="M85.905,148.096c-1.813-0.15-3.629-0.321-5.447-0.447
		c-4.894-0.339-9.777-0.733-14.527-2.082c-0.605-0.173-1.188-0.433-1.729-0.799c2.766,0.28,5.522,0.695,8.296,0.817
		c6.391,0.276,12.789,0.605,19.178,0.555c8.011-0.063,16.01-0.677,23.883-2.236c4.343-0.857,8.641-2.029,12.874-3.326
		c2.007-0.616,3.818-1.86,5.722-2.816c-0.22,1.141-0.996,2.093-1.956,2.908c-2.422,2.069-5.355,3.094-8.351,3.944
		c-5.699,1.612-11.547,2.362-17.435,2.798c-2.79,0.207-5.586,0.314-8.377,0.479c-0.212,0.015-0.419,0.137-0.629,0.205
		c-0.691,0-1.381,0-2.071,0c-2.011-0.079-4.024-0.177-6.037-0.222c-0.517-0.012-1.035,0.143-1.552,0.222
		C87.134,148.096,86.52,148.096,85.905,148.096z"/>
	<path fill-rule="evenodd" clip-rule="evenodd" fill="#1197D4" d="M87.747,148.096c0.517-0.079,1.035-0.233,1.552-0.222
		c2.013,0.045,4.026,0.143,6.037,0.222C92.806,148.096,90.276,148.096,87.747,148.096z"/>
	<path fill-rule="evenodd" clip-rule="evenodd" fill="#1197D4" d="M90.675,94.053c-0.316-0.073-0.451-0.065-0.52-0.126
		c-4.62-4.215-9.26-8.428-12.432-13.916c-3.245-5.615-2.625-10.107,1.771-14.881c3.659-3.976,8.043-7.088,12.201-10.47
		c2.948-2.399,5.778-4.912,8.056-7.992c3.176-4.303,4.304-9.073,3.399-14.337c-0.061-0.366-0.094-0.74,0.073-1.244
		c0.252,0.331,0.545,0.641,0.755,0.998c2.395,4.1,2.449,8.377,0.867,12.736c-1.718,4.726-4.775,8.552-8.352,11.964
		c-2.215,2.114-4.716,3.928-6.914,6.059c-2.024,1.96-4.029,4.01-5.66,6.295c-2.725,3.827-3.025,8.099-0.943,12.313
		c1.248,2.529,2.907,4.855,4.41,7.255c0.872,1.396,1.812,2.753,2.702,4.14C90.302,93.174,90.436,93.554,90.675,94.053z"/>
	<path fill-rule="evenodd" clip-rule="evenodd" fill="#1197D4" d="M127.518,131.351c1.907,1.03,2.159,2.306,0.708,3.441
		c-1.159,0.909-2.491,1.664-3.854,2.225c-4.811,1.986-9.897,2.944-15.016,3.709c-8.962,1.338-17.988,1.779-27.042,1.616
		c-9.969-0.183-19.883-1.045-29.708-2.777c-1.295-0.229-2.592-0.701-3.773-1.295c-1.352-0.679-1.457-1.785-0.433-2.92
		c0.431-0.479,0.931-0.931,1.476-1.263c4.274-2.606,8.91-4.032,13.922-4.152c0.631-0.014,1.267,0.153,1.92,0.511
		c-0.255,0.053-0.503,0.137-0.759,0.163c-2.816,0.271-5.474,1.088-8.007,2.319c-0.242,0.118-0.522,0.218-0.689,0.409
		c-0.404,0.468-1.027,0.976-1.043,1.482c-0.01,0.374,0.744,0.99,1.254,1.12c3.219,0.813,6.432,1.785,9.709,2.216
		c11.553,1.521,23.163,1.362,34.765,0.68c7.033-0.413,14.062-0.999,20.931-2.713c1.398-0.348,2.781-0.862,4.084-1.484
		C127.188,134.055,128.156,133.149,127.518,131.351z"/>
	<path fill-rule="evenodd" clip-rule="evenodd" fill="#1197D4" d="M95.966,98.292c0.537-0.787,1.139-1.537,1.603-2.367
		c1.659-2.973,1.492-5.844-0.528-8.617c-1.371-1.887-2.869-3.717-3.972-5.754c-2.896-5.359-2.075-10.766,2.067-15.262
		c2.771-3.005,6.103-5.277,9.771-6.97c3.471-1.598,7.094-2.866,10.656-4.273c0.272-0.11,0.573-0.15,0.96-0.039
		c-0.371,0.226-0.742,0.456-1.115,0.68c-4.438,2.669-8.864,5.371-12.666,8.92c-1.414,1.315-2.674,2.853-3.746,4.463
		c-1.387,2.084-1.447,4.407-0.386,6.695c0.449,0.97,0.978,1.913,1.551,2.813c0.678,1.07,1.438,2.082,2.17,3.111
		c3.097,4.354,2.938,8.249-0.728,12.146c-1.633,1.738-3.566,3.192-5.366,4.774C96.145,98.507,96.056,98.397,95.966,98.292z"/>
	<path fill-rule="evenodd" clip-rule="evenodd" fill="#1197D4" d="M74.563,121.587c-0.327,1.891-0.105,2.421,1.454,2.734
		c2.245,0.447,4.528,0.732,6.806,0.968c6.494,0.679,12.909-0.028,19.291-1.218c0.58-0.109,1.289,0.039,1.836,0.291
		c1.736,0.789,3.426,1.682,5.265,2.603c-0.293,0.179-0.509,0.354-0.759,0.453c-7.391,2.877-15.052,3.985-22.957,3.523
		c-3.642-0.211-7.251-0.671-10.679-1.96c-1.342-0.502-2.664-1.199-3.807-2.056c-1.436-1.075-1.37-2.47,0.102-3.509
		C72.107,122.717,73.269,122.26,74.563,121.587z"/>
	<path fill-rule="evenodd" clip-rule="evenodd" fill="#1197D4" d="M114.696,100.115c-1.58,0.8-3.078,1.991-4.752,2.324
		c-4.947,0.984-9.938,1.975-14.954,2.326c-6.946,0.488-13.937,0.624-20.896,0.47c-4.451-0.1-8.892-0.947-13.32-1.57
		c-0.988-0.138-1.968-0.638-2.851-1.146c-0.974-0.559-0.964-1.285-0.118-2.031c0.256-0.228,0.549-0.429,0.85-0.585
		c5.35-2.755,11.025-4.339,17.035-4.711c0.301-0.019,0.605-0.003,0.951,0.187c-0.809,0.234-1.631,0.436-2.426,0.718
		c-2.34,0.834-4.698,1.635-6.983,2.599c-0.647,0.272-1.071,1.069-1.599,1.622c0.633,0.43,1.225,1.125,1.907,1.23
		c2.717,0.429,5.457,0.881,8.198,0.952c12.744,0.331,25.418-0.543,38.001-2.632c0.276-0.047,0.569-0.004,0.854-0.004
		C114.629,99.946,114.661,100.032,114.696,100.115z"/>
	<path fill-rule="evenodd" clip-rule="evenodd" fill="#1197D4" d="M111.4,114.574c-2.315,0.551-4.374,1.102-6.458,1.524
		c-8.338,1.688-16.76,2.388-25.238,1.572c-3.176-0.301-6.315-1.101-9.44-1.814c-0.97-0.221-1.909-0.803-2.735-1.395
		c-1.305-0.939-1.408-2.2-0.142-3.155c1.374-1.035,2.956-1.787,4.583-2.741c0.036,0.43,0.075,0.527,0.045,0.562
		c-1.501,1.684-0.952,3.093,1.291,3.495c2.629,0.468,5.305,0.744,7.973,0.919c7.99,0.522,15.912-0.171,23.762-1.684
		c1.153-0.22,2.068-0.22,3.031,0.635C108.958,113.28,110.101,113.783,111.4,114.574z"/>
	<path fill-rule="evenodd" clip-rule="evenodd" fill="#1197D4" d="M118.751,95.583c0.818-0.35,1.609-0.793,2.46-1.034
		c2.655-0.767,5.296-0.71,7.87,0.396c4.927,2.114,6.74,7.395,3.848,11.895c-1.131,1.759-2.747,3.289-4.387,4.627
		c-2.895,2.367-9.516,5.09-12.494,5.25c0.466-0.278,0.92-0.569,1.391-0.833c3.496-1.956,6.828-4.134,9.414-7.255
		c1.678-2.025,2.93-4.266,2.597-7.017c-0.472-3.9-4.457-6.779-8.33-6.094c-0.744,0.134-1.478,0.311-2.22,0.468
		C118.853,95.852,118.802,95.718,118.751,95.583z"/>
</g>
</svg>
