<?xml version="1.0" encoding="utf-8"?>
<!-- Generator: Adobe Illustrator 16.0.0, SVG Export Plug-In . SVG Version: 6.00 Build 0)  -->
<!DOCTYPE svg PUBLIC "-//W3C//DTD SVG 1.1//EN" "http://www.w3.org/Graphics/SVG/1.1/DTD/svg11.dtd">
<svg version="1.1" id="Capa_1" xmlns="http://www.w3.org/2000/svg" xmlns:xlink="http://www.w3.org/1999/xlink" x="0px" y="0px"
	 width="163.394px" height="163.394px" viewBox="0 0 163.394 163.394" enable-background="new 0 0 163.394 163.394"
	 xml:space="preserve">
<g>
	<path fill="#1197D4" d="M94.092,121.989h-40.9c-3.814,0-6.918-3.103-6.918-6.917v-81.98c0-3.814,3.104-6.917,6.918-6.917h40.9
		c3.814,0,6.915,3.103,6.915,6.917c0,0.915-0.74,1.657-1.655,1.657s-1.657-0.742-1.657-1.657c0-1.986-1.616-3.603-3.603-3.603h-40.9
		c-1.987,0-3.605,1.616-3.605,3.603v81.98c0,1.989,1.618,3.603,3.605,3.603h40.9c1.986,0,3.603-1.614,3.603-3.603V32.99
		c0-0.915,0.742-1.657,1.657-1.657s1.655,0.742,1.655,1.657v82.082C101.007,118.886,97.906,121.989,94.092,121.989z"/>
	<path fill="#1197D4" d="M87.177,38.146H60.105c-2.364,0-4.287-1.923-4.287-4.286v-6.028c0-0.917,0.742-1.657,1.656-1.657h32.333
		c0.915,0,1.655,0.74,1.655,1.657v6.028C91.463,36.223,89.539,38.146,87.177,38.146z M59.132,29.489v4.371
		c0,0.537,0.438,0.972,0.974,0.972h27.071c0.536,0,0.974-0.435,0.974-0.972v-4.371H59.132z"/>
	<path fill="#1197D4" d="M78.552,113.661H68.73c-0.914,0-1.656-0.742-1.656-1.659c0-0.915,0.742-1.655,1.656-1.655h9.821
		c0.915,0,1.657,0.74,1.657,1.655C80.209,112.919,79.467,113.661,78.552,113.661z"/>
	<path fill="#1197D4" d="M73.377,73.272c-3.091,0-5.793-1.936-7.736-5.607c-1.277-2.42-1.956-5.278-1.956-8.273v-0.281
		c0-2.43,1.31-4.662,3.411-5.825c1.452-0.801,3.762-1.759,6.507-1.759c2.858,0,5.37,1.238,6.974,2.277
		c1.892,1.226,3.021,3.314,3.021,5.587c0,3.015-0.688,5.898-1.988,8.332c-2.513,4.699-5.766,5.596-8.015,5.545
		C73.521,73.271,73.448,73.272,73.377,73.272z M73.603,54.841c-2.039,0-3.792,0.732-4.904,1.346
		c-1.047,0.58-1.699,1.698-1.699,2.924v0.281c0,2.454,0.545,4.78,1.573,6.722c1.375,2.604,3.025,3.902,5.022,3.841
		c2.001,0.09,3.717-1.22,5.091-3.792c1.045-1.954,1.599-4.296,1.599-6.771c0-1.145-0.565-2.194-1.509-2.806
		C77.547,55.791,75.652,54.841,73.603,54.841z"/>
	<path fill="#1197D4" d="M89.645,88.573H57.638c-0.447,0-0.876-0.181-1.188-0.5c-0.313-0.321-0.483-0.754-0.472-1.202
		c0.191-7.102,4.729-12.667,10.331-12.667h14.663c5.602,0,10.141,5.565,10.329,12.667c0.013,0.448-0.156,0.88-0.47,1.202
		C90.521,88.392,90.092,88.573,89.645,88.573z M59.447,85.258h28.384c-0.69-4.398-3.546-7.74-6.858-7.74H66.31
		C62.997,77.518,60.143,80.86,59.447,85.258z"/>
	<path fill="#1197D4" d="M66.377,88.573c-0.918,0-1.66-0.742-1.66-1.657v-3.005c0-0.915,0.742-1.655,1.66-1.655
		c0.914,0,1.654,0.74,1.654,1.655v3.005C68.031,87.831,67.291,88.573,66.377,88.573z"/>
	<path fill="#1197D4" d="M80.906,88.573c-0.915,0-1.655-0.742-1.655-1.657v-3.005c0-0.915,0.74-1.655,1.655-1.655
		c0.917,0,1.659,0.74,1.659,1.655v3.005C82.565,87.831,81.823,88.573,80.906,88.573z"/>
	<path fill="#1197D4" d="M138.645,121.989H44.798c-0.917,0-1.657-0.74-1.657-1.655s0.74-1.659,1.657-1.659h93.847
		c0.914,0,1.656,0.744,1.656,1.659S139.559,121.989,138.645,121.989z"/>
	<path fill="#1197D4" d="M113.011,105.239c-0.917,0-1.659-0.74-1.659-1.655v-2.208c0-0.915,0.742-1.657,1.659-1.657
		c0.915,0,1.655,0.742,1.655,1.657v2.208C114.666,104.499,113.926,105.239,113.011,105.239z"/>
	<path fill="#1197D4" d="M113.011,112.88c-0.917,0-1.659-0.74-1.659-1.655v-2.208c0-0.915,0.742-1.657,1.659-1.657
		c0.915,0,1.655,0.742,1.655,1.657v2.208C114.666,112.14,113.926,112.88,113.011,112.88z"/>
	<path fill="#1197D4" d="M117.936,107.956h-2.208c-0.915,0-1.657-0.74-1.657-1.655c0-0.915,0.742-1.657,1.657-1.657h2.208
		c0.915,0,1.655,0.742,1.655,1.657C119.591,107.215,118.851,107.956,117.936,107.956z"/>
	<path fill="#1197D4" d="M110.293,107.956h-2.207c-0.916,0-1.658-0.74-1.658-1.655c0-0.915,0.742-1.657,1.658-1.657h2.207
		c0.914,0,1.656,0.742,1.656,1.657C111.949,107.215,111.207,107.956,110.293,107.956z"/>
	<path fill="#1197D4" d="M126.278,85.854c-0.917,0-1.657-0.74-1.657-1.655v-2.208c0-0.915,0.74-1.657,1.657-1.657
		c0.915,0,1.657,0.742,1.657,1.657v2.208C127.936,85.114,127.193,85.854,126.278,85.854z"/>
	<path fill="#1197D4" d="M126.278,93.499c-0.917,0-1.657-0.744-1.657-1.659v-2.206c0-0.915,0.74-1.657,1.657-1.657
		c0.915,0,1.657,0.742,1.657,1.657v2.206C127.936,92.755,127.193,93.499,126.278,93.499z"/>
	<path fill="#1197D4" d="M131.202,88.573h-2.208c-0.915,0-1.656-0.742-1.656-1.657s0.741-1.657,1.656-1.657h2.208
		c0.915,0,1.657,0.742,1.657,1.657S132.117,88.573,131.202,88.573z"/>
	<path fill="#1197D4" d="M123.56,88.573h-2.208c-0.915,0-1.655-0.742-1.655-1.657s0.74-1.657,1.655-1.657h2.208
		c0.915,0,1.659,0.742,1.659,1.657S124.475,88.573,123.56,88.573z"/>
</g>
</svg>
