<?xml version="1.0" encoding="utf-8"?>
<!-- Generator: Adobe Illustrator 16.0.0, SVG Export Plug-In . SVG Version: 6.00 Build 0)  -->
<!DOCTYPE svg PUBLIC "-//W3C//DTD SVG 1.1//EN" "http://www.w3.org/Graphics/SVG/1.1/DTD/svg11.dtd">
<svg version="1.1" id="Capa_1" xmlns="http://www.w3.org/2000/svg" xmlns:xlink="http://www.w3.org/1999/xlink" x="0px" y="0px"
	 width="190.252px" height="190.252px" viewBox="0 0 190.252 190.252" enable-background="new 0 0 190.252 190.252"
	 xml:space="preserve">
<circle fill="#96CAE3" cx="95.91" cy="94.69" r="80.524"/>
<path fill-rule="evenodd" clip-rule="evenodd" fill="#1F80B0" d="M75.925,75.698c-1.411,1.515-2.753,2.822-3.936,4.26
	c-1.741,2.112-3.354,4.331-5.045,6.482c-1.445,1.834-1.708,4.119-2.414,6.229c-1.443,4.311-2.637,8.71-4.229,12.96
	c-2.455,6.555-7.461,10.125-14.298,10.9c-3.658,0.414-7.383,0.231-11.079,0.311c-1.121,0.022-2.24,0.028-3.363,0.021
	c-0.654-0.004-0.826-0.301-0.643-0.96c3.493-12.605,8.369-24.582,15.998-35.311c2.783-3.914,5.893-7.542,9.694-10.522
	c3.473-2.727,7.261-4.329,11.831-4.235c8.088,0.165,16.181,0.059,24.271,0.017c4.713-0.024,8.324,1.9,10.91,5.827
	c2.409,3.653,3.899,7.708,5.027,11.884c1.873,6.932,3.588,13.905,5.377,20.861c0.111,0.431,0.284,0.846,0.673,1.297
	c0.53-1.395,1.122-2.769,1.581-4.188c2.563-7.93,5.062-15.883,7.647-23.805c1.432-4.388,3.8-8.119,7.971-10.438
	c2.222-1.238,4.622-2.054,7.143-2.136c7.253-0.241,14.511-0.335,21.767-0.483c0.053,0.105,0.105,0.212,0.158,0.317
	c-0.623,1.143-1.217,2.304-1.873,3.424c-5.697,9.735-11.325,19.511-17.143,29.173c-2.945,4.896-6.38,9.471-10.553,13.436
	c-3.25,3.087-7.006,4.697-11.613,4.563c-6.236-0.183-12.479-0.024-18.719-0.049c-2.309-0.01-4.651,0.098-6.916-0.252
	c-3.555-0.545-5.834-3.031-7.688-5.904c-2.299-3.559-3.658-7.531-4.744-11.577c-1.856-6.901-3.561-13.843-5.336-20.768
	C76.289,76.66,76.136,76.302,75.925,75.698z"/>
</svg>
