<svg data-v-fde0c5aa="" xmlns="http://www.w3.org/2000/svg" viewBox="0 0 300 300" class="iconLeftSlogan"><!----><defs data-v-fde0c5aa=""><!----></defs><rect data-v-fde0c5aa="" fill="transparent" x="0" y="0" width="300px" height="300px" class="logo-background-square"></rect><defs data-v-fde0c5aa=""><!----></defs><g data-v-fde0c5aa="" id="4392c11f-2479-48b9-9bde-bf0efe02d30d" fill="#000000" transform="matrix(1.3630962589305953,0,0,1.3630962589305953,101.83993900286295,128.44094369826956)"><path d="M7.36 9.11L7.36 9.11Q7.36 10.09 6.93 10.86L6.93 10.86L6.93 10.86Q6.50 11.62 5.73 12.05L5.73 12.05L5.73 12.05Q4.97 12.47 3.99 12.47L3.99 12.47L3.99 12.47Q3.01 12.47 2.25 12.05L2.25 12.05L2.25 12.05Q1.48 11.62 1.06 10.86L1.06 10.86L1.06 10.86Q0.63 10.09 0.63 9.11L0.63 9.11L0.63 9.11Q0.63 8.79 0.84 8.59L0.84 8.59L0.84 8.59Q1.05 8.39 1.36 8.39L1.36 8.39L1.36 8.39Q1.68 8.39 1.88 8.59L1.88 8.59L1.88 8.59Q2.09 8.79 2.09 9.11L2.09 9.11L2.09 9.11Q2.09 10.01 2.62 10.58L2.62 10.58L2.62 10.58Q3.15 11.16 3.99 11.16L3.99 11.16L3.99 11.16Q4.83 11.16 5.37 10.58L5.37 10.58L5.37 10.58Q5.91 10.01 5.91 9.11L5.91 9.11L5.91 2.13L5.91 2.13Q5.91 1.81 6.11 1.60L6.11 1.60L6.11 1.60Q6.31 1.40 6.62 1.40L6.62 1.40L6.62 1.40Q6.94 1.40 7.15 1.60L7.15 1.60L7.15 1.60Q7.36 1.81 7.36 2.13L7.36 2.13L7.36 9.11ZM15.88 4.75L15.88 4.75Q16.31 4.91 16.31 5.29L16.31 5.29L16.31 5.29Q16.31 5.43 16.23 5.63L16.23 5.63L11.94 15.26L11.94 15.26Q11.77 15.69 11.40 15.69L11.40 15.69L11.40 15.69Q11.26 15.69 11.06 15.61L11.06 15.61L11.06 15.61Q10.64 15.43 10.64 15.06L10.64 15.06L10.64 15.06Q10.64 14.90 10.72 14.73L10.72 14.73L12.12 11.58L8.97 5.60L8.97 5.60Q8.90 5.47 8.90 5.31L8.90 5.31L8.90 5.31Q8.90 5.12 9.02 4.97L9.02 4.97L9.02 4.97Q9.13 4.82 9.31 4.73L9.31 4.73L9.31 4.73Q9.44 4.68 9.59 4.68L9.59 4.68L9.59 4.68Q9.98 4.68 10.18 5.07L10.18 5.07L12.74 10.16L14.99 5.08L14.99 5.08Q15.18 4.68 15.54 4.68L15.54 4.68L15.54 4.68Q15.72 4.68 15.88 4.75L15.88 4.75ZM21.38 4.61L21.38 4.61Q22.34 4.61 23.11 5.03L23.11 5.03L23.11 5.03Q23.88 5.45 24.32 6.25L24.32 6.25L24.32 6.25Q24.75 7.06 24.75 8.19L24.75 8.19L24.75 11.63L24.75 11.63Q24.75 11.94 24.55 12.14L24.55 12.14L24.55 12.14Q24.35 12.35 24.04 12.35L24.04 12.35L24.04 12.35Q23.73 12.35 23.53 12.14L23.53 12.14L23.53 12.14Q23.32 11.94 23.32 11.63L23.32 11.63L23.32 8.19L23.32 8.19Q23.32 7.06 22.71 6.47L22.71 6.47L22.71 6.47Q22.11 5.89 21.10 5.89L21.10 5.89L21.10 5.89Q20.51 5.89 20.03 6.13L20.03 6.13L20.03 6.13Q19.54 6.37 19.27 6.78L19.27 6.78L19.27 6.78Q19.00 7.18 19.00 7.69L19.00 7.69L19.00 11.63L19.00 11.63Q19.00 11.94 18.80 12.14L18.80 12.14L18.80 12.14Q18.61 12.35 18.28 12.35L18.28 12.35L18.28 12.35Q17.98 12.35 17.77 12.14L17.77 12.14L17.77 12.14Q17.57 11.94 17.57 11.63L17.57 11.63L17.57 5.39L17.57 5.39Q17.57 5.07 17.77 4.87L17.77 4.87L17.77 4.87Q17.98 4.68 18.28 4.68L18.28 4.68L18.28 4.68Q18.61 4.68 18.80 4.87L18.80 4.87L18.80 4.87Q19.00 5.07 19.00 5.39L19.00 5.39L19.00 5.54L19.00 5.54Q19.45 5.10 20.06 4.85L20.06 4.85L20.06 4.85Q20.68 4.61 21.38 4.61L21.38 4.61ZM32.93 11.26L32.93 11.26Q33.12 11.47 33.12 11.75L33.12 11.75L33.12 11.75Q33.12 12.00 32.95 12.17L32.95 12.17L32.95 12.17Q32.77 12.33 32.49 12.33L32.49 12.33L32.49 12.33Q32.16 12.33 31.99 12.11L31.99 12.11L29.76 9.45L27.65 12.11L27.65 12.11Q27.44 12.33 27.15 12.33L27.15 12.33L27.15 12.33Q26.87 12.33 26.70 12.17L26.70 12.17L26.70 12.17Q26.54 12.00 26.54 11.75L26.54 11.75L26.54 11.75Q26.54 11.47 26.74 11.23L26.74 11.23L28.91 8.51L26.60 5.78L26.60 5.78Q26.39 5.53 26.39 5.25L26.39 5.25L26.39 5.25Q26.39 5.01 26.55 4.84L26.55 4.84L26.55 4.84Q26.71 4.68 27.01 4.68L27.01 4.68L27.01 4.68Q27.34 4.68 27.54 4.91L27.54 4.91L29.83 7.66L31.89 4.91L31.89 4.91Q32.07 4.68 32.41 4.68L32.41 4.68L32.41 4.68Q32.69 4.68 32.85 4.85L32.85 4.85L32.85 4.85Q33.01 5.03 33.01 5.28L33.01 5.28L33.01 5.28Q33.01 5.59 32.82 5.84L32.82 5.84L30.70 8.60L32.93 11.26ZM41.23 4.66L41.23 4.66Q41.55 4.66 41.75 4.86L41.75 4.86L41.75 4.86Q41.94 5.05 41.94 5.38L41.94 5.38L41.94 11.62L41.94 11.62Q41.94 11.93 41.75 12.13L41.75 12.13L41.75 12.13Q41.55 12.33 41.23 12.33L41.23 12.33L41.23 12.33Q40.92 12.33 40.72 12.13L40.72 12.13L40.72 12.13Q40.52 11.93 40.52 11.62L40.52 11.62L40.52 11.47L40.52 11.47Q40.07 11.91 39.45 12.16L39.45 12.16L39.45 12.16Q38.84 12.40 38.14 12.40L38.14 12.40L38.14 12.40Q37.17 12.40 36.40 11.98L36.40 11.98L36.40 11.98Q35.63 11.56 35.20 10.76L35.20 10.76L35.20 10.76Q34.76 9.95 34.76 8.82L34.76 8.82L34.76 5.38L34.76 5.38Q34.76 5.07 34.96 4.86L34.96 4.86L34.96 4.86Q35.17 4.66 35.48 4.66L35.48 4.66L35.48 4.66Q35.78 4.66 35.99 4.86L35.99 4.86L35.99 4.86Q36.19 5.07 36.19 5.38L36.19 5.38L36.19 8.82L36.19 8.82Q36.19 9.95 36.80 10.54L36.80 10.54L36.80 10.54Q37.41 11.12 38.42 11.12L38.42 11.12L38.42 11.12Q39.00 11.12 39.49 10.88L39.49 10.88L39.49 10.88Q39.97 10.64 40.24 10.23L40.24 10.23L40.24 10.23Q40.52 9.83 40.52 9.32L40.52 9.32L40.52 5.38L40.52 5.38Q40.52 5.05 40.72 4.86L40.72 4.86L40.72 4.86Q40.92 4.66 41.23 4.66L41.23 4.66ZM52.37 1.27L52.37 1.27Q53.58 1.27 54.40 1.76L54.40 1.76L54.40 1.76Q55.23 2.25 55.80 3.16L55.80 3.16L55.80 3.16Q55.97 3.43 55.97 3.67L55.97 3.67L55.97 3.67Q55.97 3.98 55.69 4.17L55.69 4.17L55.69 4.17Q55.54 4.27 55.33 4.27L55.33 4.27L55.33 4.27Q55.12 4.27 54.94 4.16L54.94 4.16L54.94 4.16Q54.75 4.06 54.66 3.88L54.66 3.88L54.66 3.88Q54.28 3.25 53.71 2.92L53.71 2.92L53.71 2.92Q53.14 2.59 52.28 2.59L52.28 2.59L52.28 2.59Q51.21 2.59 50.55 3.00L50.55 3.00L50.55 3.00Q49.90 3.42 49.90 4.20L49.90 4.20L49.90 4.20Q49.90 4.93 50.48 5.42L50.48 5.42L50.48 5.42Q51.07 5.91 52.58 6.06L52.58 6.06L52.58 6.06Q54.26 6.23 55.19 7.08L55.19 7.08L55.19 7.08Q56.11 7.92 56.11 9.31L56.11 9.31L56.11 9.31Q56.11 10.32 55.57 11.04L55.57 11.04L55.57 11.04Q55.02 11.76 54.12 12.12L54.12 12.12L54.12 12.12Q53.21 12.47 52.18 12.47L52.18 12.47L52.18 12.47Q50.82 12.47 49.71 11.86L49.71 11.86L49.71 11.86Q48.59 11.24 48.17 10.25L48.17 10.25L48.17 10.25Q48.10 10.08 48.10 9.97L48.10 9.97L48.10 9.97Q48.10 9.76 48.26 9.60L48.26 9.60L48.26 9.60Q48.41 9.44 48.68 9.38L48.68 9.38L48.68 9.38Q48.72 9.37 48.82 9.37L48.82 9.37L48.82 9.37Q49.04 9.37 49.24 9.50L49.24 9.50L49.24 9.50Q49.45 9.63 49.55 9.86L49.55 9.86L49.55 9.86Q49.80 10.40 50.54 10.78L50.54 10.78L50.54 10.78Q51.28 11.16 52.18 11.16L52.18 11.16L52.18 11.16Q53.23 11.16 53.96 10.67L53.96 10.67L53.96 10.67Q54.68 10.19 54.68 9.35L54.68 9.35L54.68 9.35Q54.68 8.55 54.07 7.99L54.07 7.99L54.07 7.99Q53.45 7.42 52.19 7.29L52.19 7.29L52.19 7.29Q50.46 7.13 49.46 6.28L49.46 6.28L49.46 6.28Q48.47 5.43 48.47 4.16L48.47 4.16L48.47 4.16Q48.47 3.26 48.98 2.61L48.98 2.61L48.98 2.61Q49.49 1.96 50.38 1.62L50.38 1.62L50.38 1.62Q51.27 1.27 52.37 1.27L52.37 1.27ZM61.67 4.62L61.67 4.62Q62.78 4.62 63.65 5.12L63.65 5.12L63.65 5.12Q64.53 5.61 65.02 6.50L65.02 6.50L65.02 6.50Q65.52 7.38 65.52 8.51L65.52 8.51L65.52 8.51Q65.52 9.63 65.03 10.51L65.03 10.51L65.03 10.51Q64.54 11.40 63.66 11.89L63.66 11.89L63.66 11.89Q62.79 12.39 61.67 12.39L61.67 12.39L61.67 12.39Q60.55 12.39 59.67 11.89L59.67 11.89L59.67 11.89Q58.79 11.40 58.30 10.51L58.30 10.51L58.30 10.51Q57.81 9.63 57.81 8.51L57.81 8.51L57.81 8.51Q57.81 7.38 58.30 6.50L58.30 6.50L58.30 6.50Q58.79 5.61 59.67 5.12L59.67 5.12L59.67 5.12Q60.55 4.62 61.67 4.62L61.67 4.62ZM61.67 5.88L61.67 5.88Q60.96 5.88 60.39 6.22L60.39 6.22L60.39 6.22Q59.82 6.55 59.50 7.15L59.50 7.15L59.50 7.15Q59.18 7.76 59.18 8.51L59.18 8.51L59.18 8.51Q59.18 9.27 59.50 9.86L59.50 9.86L59.50 9.86Q59.82 10.46 60.39 10.79L60.39 10.79L60.39 10.79Q60.96 11.13 61.67 11.13L61.67 11.13L61.67 11.13Q62.38 11.13 62.95 10.79L62.95 10.79L62.95 10.79Q63.52 10.46 63.83 9.86L63.83 9.86L63.83 9.86Q64.15 9.27 64.15 8.51L64.15 8.51L64.15 8.51Q64.15 7.76 63.83 7.15L63.83 7.15L63.83 7.15Q63.52 6.55 62.95 6.22L62.95 6.22L62.95 6.22Q62.38 5.88 61.67 5.88L61.67 5.88ZM67.37 2.10L67.37 2.10Q67.37 1.79 67.56 1.60L67.56 1.60L67.56 1.60Q67.76 1.40 68.07 1.40L68.07 1.40L68.07 1.40Q68.38 1.40 68.57 1.60L68.57 1.60L68.57 1.60Q68.77 1.79 68.77 2.10L68.77 2.10L68.77 9.74L68.77 9.74Q68.77 10.26 68.96 10.60L68.96 10.60L68.96 10.60Q69.16 10.93 69.47 10.93L69.47 10.93L69.82 10.93L69.82 10.93Q70.10 10.93 70.27 11.13L70.27 11.13L70.27 11.13Q70.45 11.33 70.45 11.63L70.45 11.63L70.45 11.63Q70.45 11.94 70.18 12.14L70.18 12.14L70.18 12.14Q69.92 12.33 69.50 12.33L69.50 12.33L69.47 12.33L69.47 12.33Q68.87 12.33 68.38 12.00L68.38 12.00L68.38 12.00Q67.90 11.68 67.63 11.08L67.63 11.08L67.63 11.08Q67.37 10.49 67.37 9.74L67.37 9.74L67.37 2.10ZM78.16 4.66L78.16 4.66Q78.48 4.66 78.68 4.86L78.68 4.86L78.68 4.86Q78.88 5.05 78.88 5.38L78.88 5.38L78.88 11.62L78.88 11.62Q78.88 11.93 78.68 12.13L78.68 12.13L78.68 12.13Q78.48 12.33 78.16 12.33L78.16 12.33L78.16 12.33Q77.85 12.33 77.65 12.13L77.65 12.13L77.65 12.13Q77.45 11.93 77.45 11.62L77.45 11.62L77.45 11.47L77.45 11.47Q77 11.91 76.38 12.16L76.38 12.16L76.38 12.16Q75.77 12.40 75.07 12.40L75.07 12.40L75.07 12.40Q74.10 12.40 73.33 11.98L73.33 11.98L73.33 11.98Q72.56 11.56 72.13 10.76L72.13 10.76L72.13 10.76Q71.69 9.95 71.69 8.82L71.69 8.82L71.69 5.38L71.69 5.38Q71.69 5.07 71.90 4.86L71.90 4.86L71.90 4.86Q72.10 4.66 72.41 4.66L72.41 4.66L72.41 4.66Q72.72 4.66 72.92 4.86L72.92 4.86L72.92 4.86Q73.12 5.07 73.12 5.38L73.12 5.38L73.12 8.82L73.12 8.82Q73.12 9.95 73.73 10.54L73.73 10.54L73.73 10.54Q74.34 11.12 75.35 11.12L75.35 11.12L75.35 11.12Q75.94 11.12 76.42 10.88L76.42 10.88L76.42 10.88Q76.90 10.64 77.17 10.23L77.17 10.23L77.17 10.23Q77.45 9.83 77.45 9.32L77.45 9.32L77.45 5.38L77.45 5.38Q77.45 5.05 77.65 4.86L77.65 4.86L77.65 4.86Q77.85 4.66 78.16 4.66L78.16 4.66ZM84.66 10.93L84.66 10.93Q84.91 10.93 85.08 11.13L85.08 11.13L85.08 11.13Q85.26 11.33 85.26 11.63L85.26 11.63L85.26 11.63Q85.26 11.94 85.03 12.14L85.03 12.14L85.03 12.14Q84.80 12.33 84.43 12.33L84.43 12.33L84.18 12.33L84.18 12.33Q83.50 12.33 82.93 11.98L82.93 11.98L82.93 11.98Q82.36 11.62 82.04 11.00L82.04 11.00L82.04 11.00Q81.72 10.39 81.72 9.62L81.72 9.62L81.72 6.16L81.07 6.16L81.07 6.16Q80.78 6.16 80.60 5.99L80.60 5.99L80.60 5.99Q80.42 5.82 80.42 5.57L80.42 5.57L80.42 5.57Q80.42 5.29 80.60 5.12L80.60 5.12L80.60 5.12Q80.78 4.96 81.07 4.96L81.07 4.96L81.72 4.96L81.72 2.94L81.72 2.94Q81.72 2.63 81.91 2.44L81.91 2.44L81.91 2.44Q82.11 2.24 82.42 2.24L82.42 2.24L82.42 2.24Q82.73 2.24 82.92 2.44L82.92 2.44L82.92 2.44Q83.12 2.63 83.12 2.94L83.12 2.94L83.12 4.96L84.31 4.96L84.31 4.96Q84.60 4.96 84.78 5.12L84.78 5.12L84.78 5.12Q84.97 5.29 84.97 5.57L84.97 5.57L84.97 5.57Q84.97 5.82 84.78 5.99L84.78 5.99L84.78 5.99Q84.60 6.16 84.31 6.16L84.31 6.16L83.12 6.16L83.12 9.62L83.12 9.62Q83.12 10.18 83.43 10.56L83.43 10.56L83.43 10.56Q83.73 10.93 84.18 10.93L84.18 10.93L84.66 10.93ZM87.15 5.39L87.15 5.39Q87.15 5.07 87.35 4.87L87.35 4.87L87.35 4.87Q87.56 4.68 87.86 4.68L87.86 4.68L87.86 4.68Q88.19 4.68 88.38 4.87L88.38 4.87L88.38 4.87Q88.58 5.07 88.58 5.39L88.58 5.39L88.58 11.62L88.58 11.62Q88.58 11.93 88.38 12.13L88.38 12.13L88.38 12.13Q88.19 12.33 87.86 12.33L87.86 12.33L87.86 12.33Q87.56 12.33 87.35 12.13L87.35 12.13L87.35 12.13Q87.15 11.93 87.15 11.62L87.15 11.62L87.15 5.39ZM87.86 1.58L87.86 1.58Q88.24 1.58 88.52 1.85L88.52 1.85L88.52 1.85Q88.79 2.13 88.79 2.51L88.79 2.51L88.79 2.51Q88.79 2.88 88.52 3.16L88.52 3.16L88.52 3.16Q88.24 3.43 87.86 3.43L87.86 3.43L87.86 3.43Q87.49 3.43 87.21 3.16L87.21 3.16L87.21 3.16Q86.94 2.88 86.94 2.51L86.94 2.51L86.94 2.51Q86.94 2.13 87.21 1.85L87.21 1.85L87.21 1.85Q87.49 1.58 87.86 1.58L87.86 1.58ZM94.71 4.62L94.71 4.62Q95.82 4.62 96.69 5.12L96.69 5.12L96.69 5.12Q97.57 5.61 98.06 6.50L98.06 6.50L98.06 6.50Q98.56 7.38 98.56 8.51L98.56 8.51L98.56 8.51Q98.56 9.63 98.07 10.51L98.07 10.51L98.07 10.51Q97.58 11.40 96.70 11.89L96.70 11.89L96.70 11.89Q95.83 12.39 94.71 12.39L94.71 12.39L94.71 12.39Q93.59 12.39 92.71 11.89L92.71 11.89L92.71 11.89Q91.83 11.40 91.34 10.51L91.34 10.51L91.34 10.51Q90.85 9.63 90.85 8.51L90.85 8.51L90.85 8.51Q90.85 7.38 91.34 6.50L91.34 6.50L91.34 6.50Q91.83 5.61 92.71 5.12L92.71 5.12L92.71 5.12Q93.59 4.62 94.71 4.62L94.71 4.62ZM94.71 5.88L94.71 5.88Q94.00 5.88 93.43 6.22L93.43 6.22L93.43 6.22Q92.86 6.55 92.54 7.15L92.54 7.15L92.54 7.15Q92.22 7.76 92.22 8.51L92.22 8.51L92.22 8.51Q92.22 9.27 92.54 9.86L92.54 9.86L92.54 9.86Q92.86 10.46 93.43 10.79L93.43 10.79L93.43 10.79Q94.00 11.13 94.71 11.13L94.71 11.13L94.71 11.13Q95.42 11.13 95.99 10.79L95.99 10.79L95.99 10.79Q96.56 10.46 96.87 9.86L96.87 9.86L96.87 9.86Q97.19 9.27 97.19 8.51L97.19 8.51L97.19 8.51Q97.19 7.76 96.87 7.15L96.87 7.15L96.87 7.15Q96.56 6.55 95.99 6.22L95.99 6.22L95.99 6.22Q95.42 5.88 94.71 5.88L94.71 5.88ZM104.50 4.61L104.50 4.61Q105.46 4.61 106.23 5.03L106.23 5.03L106.23 5.03Q107.00 5.45 107.44 6.25L107.44 6.25L107.44 6.25Q107.87 7.06 107.87 8.19L107.87 8.19L107.87 11.63L107.87 11.63Q107.87 11.94 107.67 12.14L107.67 12.14L107.67 12.14Q107.46 12.35 107.16 12.35L107.16 12.35L107.16 12.35Q106.85 12.35 106.64 12.14L106.64 12.14L106.64 12.14Q106.44 11.94 106.44 11.63L106.44 11.63L106.44 8.19L106.44 8.19Q106.44 7.06 105.83 6.47L105.83 6.47L105.83 6.47Q105.22 5.89 104.22 5.89L104.22 5.89L104.22 5.89Q103.63 5.89 103.14 6.13L103.14 6.13L103.14 6.13Q102.66 6.37 102.39 6.78L102.39 6.78L102.39 6.78Q102.12 7.18 102.12 7.69L102.12 7.69L102.12 11.63L102.12 11.63Q102.12 11.94 101.92 12.14L101.92 12.14L101.92 12.14Q101.72 12.35 101.40 12.35L101.40 12.35L101.40 12.35Q101.09 12.35 100.89 12.14L100.89 12.14L100.89 12.14Q100.69 11.94 100.69 11.63L100.69 11.63L100.69 5.39L100.69 5.39Q100.69 5.07 100.89 4.87L100.89 4.87L100.89 4.87Q101.09 4.68 101.40 4.68L101.40 4.68L101.40 4.68Q101.72 4.68 101.92 4.87L101.92 4.87L101.92 4.87Q102.12 5.07 102.12 5.39L102.12 5.39L102.12 5.54L102.12 5.54Q102.56 5.10 103.18 4.85L103.18 4.85L103.18 4.85Q103.80 4.61 104.50 4.61L104.50 4.61ZM112.92 4.62L112.92 4.62Q113.83 4.62 114.55 4.91L114.55 4.91L114.55 4.91Q115.28 5.21 115.70 5.73L115.70 5.73L115.70 5.73Q115.88 5.95 115.88 6.17L115.88 6.17L115.88 6.17Q115.88 6.41 115.64 6.61L115.64 6.61L115.64 6.61Q115.49 6.72 115.25 6.72L115.25 6.72L115.25 6.72Q114.88 6.72 114.59 6.45L114.59 6.45L114.59 6.45Q114.24 6.13 113.85 6.00L113.85 6.00L113.85 6.00Q113.46 5.87 112.90 5.87L112.90 5.87L112.90 5.87Q112.25 5.87 111.84 6.08L111.84 6.08L111.84 6.08Q111.43 6.30 111.43 6.69L111.43 6.69L111.43 6.69Q111.43 6.97 111.57 7.16L111.57 7.16L111.57 7.16Q111.71 7.35 112.10 7.51L112.10 7.51L112.10 7.51Q112.49 7.67 113.23 7.83L113.23 7.83L113.23 7.83Q114.76 8.13 115.39 8.68L115.39 8.68L115.39 8.68Q116.03 9.23 116.03 10.09L116.03 10.09L116.03 10.09Q116.03 10.74 115.68 11.26L115.68 11.26L115.68 11.26Q115.33 11.79 114.65 12.09L114.65 12.09L114.65 12.09Q113.97 12.39 113.02 12.39L113.02 12.39L113.02 12.39Q112.07 12.39 111.23 12.10L111.23 12.10L111.23 12.10Q110.39 11.80 109.91 11.33L109.91 11.33L109.91 11.33Q109.73 11.14 109.73 10.89L109.73 10.89L109.73 10.89Q109.73 10.56 110.01 10.35L110.01 10.35L110.01 10.35Q110.28 10.15 110.50 10.15L110.50 10.15L110.50 10.15Q110.78 10.15 111.03 10.40L111.03 10.40L111.03 10.40Q111.30 10.70 111.83 10.91L111.83 10.91L111.83 10.91Q112.36 11.13 112.97 11.13L112.97 11.13L112.97 11.13Q113.76 11.13 114.20 10.86L114.20 10.86L114.20 10.86Q114.65 10.60 114.65 10.15L114.65 10.15L114.65 10.15Q114.65 9.72 114.21 9.43L114.21 9.43L114.21 9.43Q113.78 9.14 112.74 8.95L112.74 8.95L112.74 8.95Q110.05 8.43 110.05 6.73L110.05 6.73L110.05 6.73Q110.05 6.05 110.46 5.57L110.46 5.57L110.46 5.57Q110.87 5.10 111.52 4.86L111.52 4.86L111.52 4.86Q112.18 4.62 112.92 4.62L112.92 4.62Z"></path></g><defs data-v-fde0c5aa=""><linearGradient data-v-fde0c5aa="" gradientTransform="rotate(25)" id="ebee1127-942b-4b88-b665-1892baeea719" x1="0%" y1="0%" x2="100%" y2="0%"><stop data-v-fde0c5aa="" offset="0%" stop-color="#462AB9" stop-opacity="1"></stop><stop data-v-fde0c5aa="" offset="100%" stop-color="#737048" stop-opacity="1"></stop></linearGradient></defs><g data-v-fde0c5aa="" id="24e4ad5d-8b29-47bb-b3b5-d174acd7905c" stroke="none" fill="url(#ebee1127-942b-4b88-b665-1892baeea719)" transform="matrix(1.553084051234046,0,0,1.553084051234046,40,125.14987832422874)"><path d="M12.289 5.343v19.9L1 13.954V5.343h11.289m1-1H0v10.026l13.289 13.289V4.343zM31 5.343v8.612L19.711 25.243v-19.9H31m1-1H18.711v23.315L32 14.369V4.343z"></path></g><defs data-v-fde0c5aa=""><!----></defs><g data-v-fde0c5aa="" id="2d6b69e4-de0b-437f-8333-32879cbdc226" fill="#000000" transform="matrix(0.28829828776111033,0,0,0.28829828776111033,102.4680510058438,158.73527357927068)"><path d="M6.43 9.91C6.29 9.65 6.09 9.39 5.85 9.21C5.61 9.03 5.36 8.88 5.07 8.75C4.77 8.62 4.45 8.51 4.14 8.41C3.84 8.32 3.53 8.20 3.23 8.11C2.94 7.99 2.67 7.87 2.44 7.71C2.20 7.56 2.02 7.38 1.88 7.15C1.74 6.93 1.65 6.65 1.65 6.31C1.65 6.06 1.71 5.82 1.81 5.59C1.90 5.35 2.04 5.15 2.23 4.97C2.41 4.79 2.63 4.65 2.91 4.55C3.19 4.45 3.50 4.40 3.86 4.40C4.54 4.40 5.15 4.51 5.71 4.75C5.75 5.54 5.78 5.99 5.78 6.06C5.80 6.29 5.88 6.41 6.08 6.41L6.41 6.41L6.41 4.38C5.53 4.00 4.69 3.81 3.86 3.81C3.40 3.81 3.00 3.88 2.63 4.02C2.27 4.16 1.97 4.34 1.74 4.58C1.50 4.82 1.30 5.08 1.18 5.39C1.05 5.70 0.99 6.02 0.99 6.36C0.99 6.78 1.06 7.14 1.20 7.42C1.34 7.70 1.54 7.92 1.78 8.12C2.02 8.32 2.27 8.46 2.56 8.58C2.86 8.71 3.18 8.82 3.49 8.92C3.79 9.02 4.09 9.11 4.40 9.21C4.69 9.31 4.96 9.45 5.19 9.60C5.43 9.76 5.61 9.94 5.75 10.16C5.89 10.39 5.96 10.68 5.96 11.03C5.96 11.35 5.91 11.66 5.80 11.94C5.68 12.22 5.53 12.46 5.32 12.67C5.11 12.88 4.84 13.05 4.54 13.16C4.23 13.29 3.88 13.33 3.49 13.33C2.70 13.33 2.04 13.20 1.51 12.95C1.50 12.75 1.50 12.54 1.48 12.32C1.47 12.10 1.47 11.91 1.46 11.76C1.44 11.61 1.44 11.52 1.44 11.51C1.43 11.28 1.33 11.17 1.13 11.17L0.80 11.17L0.80 13.02L0.80 13.20L0.80 13.38C1.65 13.75 2.53 13.93 3.46 13.93C3.96 13.93 4.41 13.85 4.80 13.69C5.19 13.54 5.53 13.31 5.80 13.05C6.06 12.78 6.29 12.46 6.43 12.10C6.57 11.73 6.64 11.34 6.64 10.92C6.64 10.51 6.57 10.18 6.43 9.91ZM24.16 8.86C24.16 8.11 24.04 7.41 23.81 6.79C23.59 6.17 23.27 5.64 22.85 5.19C22.43 4.75 21.94 4.40 21.36 4.16C20.79 3.92 20.13 3.79 19.43 3.79C18.73 3.79 18.10 3.92 17.53 4.16C16.95 4.40 16.45 4.75 16.03 5.19C15.61 5.64 15.29 6.17 15.06 6.79C14.84 7.41 14.71 8.11 14.71 8.86C14.71 9.63 14.84 10.33 15.06 10.95C15.29 11.56 15.61 12.10 16.03 12.54C16.45 12.99 16.95 13.33 17.53 13.57C18.10 13.80 18.73 13.93 19.43 13.93C20.13 13.93 20.79 13.80 21.36 13.57C21.94 13.33 22.43 12.99 22.85 12.54C23.27 12.10 23.59 11.56 23.81 10.95C24.04 10.33 24.16 9.63 24.16 8.86ZM23.41 8.86C23.41 9.56 23.32 10.18 23.13 10.72C22.93 11.27 22.67 11.75 22.32 12.12C21.97 12.50 21.55 12.81 21.06 13.01C20.57 13.20 20.03 13.30 19.43 13.30C18.84 13.30 18.31 13.20 17.82 13.01C17.33 12.81 16.91 12.50 16.56 12.12C16.21 11.75 15.93 11.27 15.74 10.72C15.54 10.18 15.46 9.56 15.46 8.86C15.46 8.18 15.54 7.55 15.74 7.00C15.93 6.45 16.21 5.98 16.56 5.60C16.91 5.22 17.33 4.91 17.82 4.72C18.31 4.52 18.84 4.41 19.43 4.41C20.03 4.41 20.57 4.52 21.06 4.72C21.55 4.91 21.97 5.22 22.32 5.60C22.67 5.98 22.93 6.45 23.13 7.00C23.32 7.55 23.41 8.18 23.41 8.86ZM38.81 11.97C38.61 11.97 38.53 12.08 38.51 12.31C38.51 12.32 38.51 12.38 38.50 12.43C38.49 12.49 38.49 12.59 38.47 12.71C38.46 12.84 38.44 13.01 38.43 13.20L34.34 13.20L34.34 4.47C34.51 4.47 34.65 4.45 34.79 4.45C34.93 4.45 35.04 4.44 35.11 4.44L35.24 4.44C35.42 4.42 35.52 4.34 35.52 4.19L35.52 3.92L34.34 3.92L33.63 3.92L32.44 3.92L32.44 4.19C32.44 4.34 32.54 4.42 32.72 4.44L32.86 4.44C32.93 4.44 33.03 4.45 33.17 4.45C33.31 4.45 33.46 4.47 33.63 4.47L33.63 13.26C33.46 13.26 33.31 13.27 33.17 13.27C33.03 13.27 32.93 13.29 32.86 13.29L32.72 13.29C32.54 13.30 32.44 13.38 32.44 13.54L32.44 13.82L33.63 13.82L38.91 13.82L39.03 13.82L39.16 13.82L39.16 13.55L39.16 12.99L39.16 11.97L38.88 11.97ZM55.44 3.92L54.88 3.92L54.85 3.92L53.38 3.92L53.38 4.19C53.38 4.34 53.47 4.42 53.65 4.44L53.77 4.44C53.83 4.44 53.91 4.45 54.04 4.45C54.17 4.45 54.31 4.47 54.46 4.47L51.25 12.32C51.17 12.53 51.10 12.75 51.04 13.01C50.99 12.77 50.92 12.53 50.83 12.32L47.60 4.47C47.75 4.47 47.91 4.45 48.03 4.45C48.16 4.45 48.24 4.44 48.30 4.44L48.41 4.44C48.59 4.42 48.69 4.34 48.69 4.19L48.69 3.92L47.19 3.92L46.63 3.92L46.03 3.92L46.03 4.19C46.03 4.34 46.13 4.42 46.31 4.44L46.41 4.44C46.45 4.44 46.52 4.45 46.59 4.45C46.66 4.45 46.76 4.47 46.86 4.47L50.72 13.82L51.35 13.82L55.22 4.47C55.31 4.47 55.41 4.45 55.48 4.45C55.55 4.45 55.62 4.44 55.66 4.44L55.75 4.44C55.93 4.42 56.03 4.34 56.03 4.19L56.03 3.92ZM66.89 4.44C67.07 4.42 67.16 4.34 67.16 4.19L67.16 3.91L65.98 3.91L65.27 3.91L64.08 3.91L64.08 4.19C64.08 4.34 64.18 4.42 64.36 4.44L64.50 4.44C64.57 4.44 64.67 4.45 64.81 4.45C64.95 4.45 65.10 4.47 65.27 4.47L65.27 13.26C65.10 13.26 64.95 13.27 64.81 13.27C64.67 13.27 64.57 13.29 64.50 13.29L64.36 13.29C64.18 13.30 64.08 13.38 64.08 13.54L64.08 13.82L65.27 13.82L65.98 13.82L67.16 13.82L67.16 13.54C67.16 13.38 67.07 13.30 66.89 13.29L66.75 13.29C66.68 13.29 66.58 13.27 66.44 13.27C66.30 13.27 66.15 13.26 65.98 13.26L65.98 4.47C66.15 4.47 66.30 4.45 66.44 4.45C66.58 4.45 66.68 4.44 66.75 4.44ZM84.34 3.92L83.71 3.92L82.49 3.92L82.49 4.19C82.49 4.34 82.59 4.42 82.77 4.44L82.91 4.44C82.98 4.44 83.09 4.45 83.23 4.45C83.37 4.45 83.54 4.47 83.71 4.47L83.71 12.22C83.71 12.35 83.71 12.49 83.72 12.63L77.31 4.05C77.27 3.99 77.24 3.95 77.20 3.93C77.15 3.92 77.11 3.91 77.04 3.91L76.69 3.91L75.50 3.91L75.50 4.19C75.50 4.34 75.60 4.42 75.78 4.44L75.92 4.44C75.99 4.44 76.09 4.45 76.23 4.45C76.37 4.45 76.52 4.47 76.69 4.47L76.69 13.26C76.52 13.26 76.37 13.27 76.23 13.27C76.09 13.27 75.99 13.29 75.92 13.29L75.78 13.29C75.60 13.30 75.50 13.38 75.50 13.54L75.50 13.82L76.69 13.82L77.31 13.82L78.53 13.82L78.53 13.54C78.53 13.38 78.43 13.30 78.25 13.29L78.11 13.29C78.04 13.29 77.91 13.27 77.77 13.27C77.63 13.27 77.48 13.26 77.31 13.26L77.31 5.49C77.31 5.36 77.31 5.22 77.29 5.08L83.73 13.68C83.80 13.78 83.87 13.82 83.99 13.82L84.34 13.82L84.34 4.47C84.50 4.47 84.64 4.45 84.78 4.45C84.92 4.45 85.04 4.44 85.11 4.44L85.23 4.44C85.41 4.42 85.51 4.34 85.51 4.19L85.51 3.92ZM99.19 9.32L99.19 9.72C99.19 9.76 99.22 9.80 99.25 9.83C99.27 9.86 99.32 9.87 99.37 9.87L101.28 9.87L101.28 12.54C101.05 12.67 100.83 12.78 100.62 12.88C100.41 12.98 100.17 13.08 99.93 13.15C99.69 13.22 99.43 13.27 99.15 13.30C98.87 13.33 98.56 13.34 98.22 13.34C97.61 13.34 97.05 13.24 96.54 13.03C96.04 12.82 95.61 12.53 95.24 12.15C94.88 11.77 94.60 11.30 94.40 10.74C94.21 10.18 94.09 9.56 94.09 8.86C94.09 8.18 94.21 7.56 94.40 7.01C94.60 6.47 94.88 5.99 95.24 5.61C95.61 5.24 96.05 4.94 96.57 4.73C97.09 4.52 97.66 4.42 98.31 4.42C99.48 4.42 100.42 4.58 101.11 4.90C101.15 5.81 101.18 6.31 101.18 6.41C101.19 6.64 101.29 6.75 101.49 6.75L101.82 6.75L101.82 4.51C101.39 4.31 100.83 4.14 100.13 4.00C99.43 3.86 98.84 3.81 98.34 3.81C97.58 3.81 96.89 3.92 96.28 4.16C95.66 4.40 95.14 4.75 94.71 5.18C94.28 5.61 93.95 6.15 93.72 6.78C93.48 7.39 93.37 8.09 93.37 8.86C93.37 9.63 93.48 10.32 93.72 10.95C93.95 11.58 94.28 12.10 94.70 12.54C95.12 12.99 95.63 13.33 96.22 13.57C96.81 13.80 97.45 13.93 98.17 13.93C98.59 13.93 98.97 13.90 99.32 13.86C99.67 13.80 99.99 13.73 100.30 13.65C100.60 13.55 100.88 13.44 101.15 13.30C101.42 13.16 101.67 13.01 101.92 12.84L101.92 9.32ZM128.21 3.92L128.02 3.92L120.72 3.92L120.51 3.92L120.41 3.92L120.41 5.96L120.76 5.96C120.96 5.96 121.04 5.85 121.06 5.63C121.06 5.53 121.09 5.17 121.11 4.52L124.01 4.52L124.01 13.26C123.84 13.26 123.70 13.27 123.56 13.27C123.42 13.27 123.31 13.29 123.24 13.29L123.12 13.29C122.93 13.30 122.84 13.38 122.84 13.54L122.84 13.82L124.01 13.82L124.73 13.82L125.92 13.82L125.92 13.54C125.92 13.38 125.82 13.30 125.64 13.29L125.50 13.29C125.43 13.29 125.33 13.27 125.19 13.27C125.05 13.27 124.89 13.26 124.73 13.26L124.73 4.52L127.61 4.52C127.65 5.24 127.67 5.60 127.67 5.63C127.68 5.85 127.78 5.96 127.97 5.96L128.31 5.96L128.31 3.92ZM145.60 8.86C145.60 8.11 145.47 7.41 145.25 6.79C145.03 6.17 144.70 5.64 144.28 5.19C143.86 4.75 143.37 4.40 142.80 4.16C142.23 3.92 141.57 3.79 140.87 3.79C140.17 3.79 139.54 3.92 138.96 4.16C138.39 4.40 137.89 4.75 137.47 5.19C137.05 5.64 136.72 6.17 136.50 6.79C136.28 7.41 136.15 8.11 136.15 8.86C136.15 9.63 136.28 10.33 136.50 10.95C136.72 11.56 137.05 12.10 137.47 12.54C137.89 12.99 138.39 13.33 138.96 13.57C139.54 13.80 140.17 13.93 140.87 13.93C141.57 13.93 142.23 13.80 142.80 13.57C143.37 13.33 143.86 12.99 144.28 12.54C144.70 12.10 145.03 11.56 145.25 10.95C145.47 10.33 145.60 9.63 145.60 8.86ZM144.84 8.86C144.84 9.56 144.76 10.18 144.56 10.72C144.37 11.27 144.10 11.75 143.75 12.12C143.40 12.50 142.98 12.81 142.49 13.01C142.00 13.20 141.47 13.30 140.87 13.30C140.28 13.30 139.75 13.20 139.26 13.01C138.77 12.81 138.35 12.50 138.00 12.12C137.65 11.75 137.37 11.27 137.17 10.72C136.98 10.18 136.89 9.56 136.89 8.86C136.89 8.18 136.98 7.55 137.17 7.00C137.37 6.45 137.65 5.98 138.00 5.60C138.35 5.22 138.77 4.91 139.26 4.72C139.75 4.52 140.28 4.41 140.87 4.41C141.47 4.41 142.00 4.52 142.49 4.72C142.98 4.91 143.40 5.22 143.75 5.60C144.10 5.98 144.37 6.45 144.56 7.00C144.76 7.55 144.84 8.18 144.84 8.86ZM165.47 4.44C165.65 4.42 165.75 4.34 165.75 4.19L165.75 3.92L164.57 3.92L164.07 3.92C164.00 3.92 163.95 3.92 163.91 3.93C163.87 3.95 163.84 3.99 163.80 4.05L159.91 10.92C159.87 10.99 159.84 11.06 159.81 11.13C159.78 11.20 159.75 11.28 159.73 11.35C159.67 11.20 159.61 11.06 159.54 10.93L155.54 4.05C155.50 3.99 155.47 3.95 155.43 3.93C155.39 3.92 155.34 3.92 155.27 3.92L154.78 3.92L153.59 3.92L153.59 4.19C153.59 4.34 153.69 4.42 153.87 4.44L154.01 4.44C154.08 4.44 154.18 4.45 154.32 4.45C154.46 4.45 154.62 4.47 154.78 4.47L154.78 13.26C154.62 13.26 154.46 13.27 154.32 13.27C154.18 13.27 154.08 13.29 154.01 13.29L153.87 13.29C153.69 13.30 153.59 13.38 153.59 13.54L153.59 13.82L154.78 13.82L155.40 13.82L156.62 13.82L156.62 13.54C156.62 13.38 156.52 13.30 156.34 13.29L156.20 13.29C156.13 13.29 156.02 13.27 155.88 13.27C155.74 13.27 155.57 13.26 155.40 13.26L155.40 5.38C155.40 5.25 155.40 5.12 155.39 4.98L159.39 11.91C159.46 12.04 159.56 12.10 159.67 12.10L159.78 12.10C159.91 12.10 159.99 12.04 160.06 11.91L163.95 4.98C163.94 5.12 163.94 5.25 163.94 5.38L163.94 13.26C163.77 13.26 163.60 13.27 163.46 13.27C163.32 13.27 163.21 13.29 163.14 13.29L163.00 13.29C162.82 13.30 162.72 13.38 162.72 13.54L162.72 13.82L163.94 13.82L164.57 13.82L165.75 13.82L165.75 13.54C165.75 13.38 165.65 13.30 165.47 13.29L165.34 13.29C165.27 13.29 165.16 13.27 165.02 13.27C164.88 13.27 164.74 13.26 164.57 13.26L164.57 4.47C164.74 4.47 164.88 4.45 165.02 4.45C165.16 4.45 165.27 4.44 165.34 4.44ZM183.36 8.86C183.36 8.11 183.23 7.41 183.01 6.79C182.78 6.17 182.46 5.64 182.04 5.19C181.62 4.75 181.13 4.40 180.56 4.16C179.98 3.92 179.33 3.79 178.63 3.79C177.93 3.79 177.30 3.92 176.72 4.16C176.15 4.40 175.64 4.75 175.22 5.19C174.80 5.64 174.48 6.17 174.26 6.79C174.03 7.41 173.91 8.11 173.91 8.86C173.91 9.63 174.03 10.33 174.26 10.95C174.48 11.56 174.80 12.10 175.22 12.54C175.64 12.99 176.15 13.33 176.72 13.57C177.30 13.80 177.93 13.93 178.63 13.93C179.33 13.93 179.98 13.80 180.56 13.57C181.13 13.33 181.62 12.99 182.04 12.54C182.46 12.10 182.78 11.56 183.01 10.95C183.23 10.33 183.36 9.63 183.36 8.86ZM182.60 8.86C182.60 9.56 182.52 10.18 182.32 10.72C182.13 11.27 181.86 11.75 181.51 12.12C181.16 12.50 180.74 12.81 180.25 13.01C179.76 13.20 179.23 13.30 178.63 13.30C178.04 13.30 177.51 13.20 177.02 13.01C176.53 12.81 176.11 12.50 175.76 12.12C175.41 11.75 175.13 11.27 174.93 10.72C174.73 10.18 174.65 9.56 174.65 8.86C174.65 8.18 174.73 7.55 174.93 7.00C175.13 6.45 175.41 5.98 175.76 5.60C176.11 5.22 176.53 4.91 177.02 4.72C177.51 4.52 178.04 4.41 178.63 4.41C179.23 4.41 179.76 4.52 180.25 4.72C180.74 4.91 181.16 5.22 181.51 5.60C181.86 5.98 182.13 6.45 182.32 7.00C182.52 7.55 182.60 8.18 182.60 8.86ZM199.63 13.29L199.53 13.29L199.35 13.29C199.26 13.29 199.18 13.27 199.09 13.27L196.13 9.53C196.04 9.42 195.93 9.32 195.82 9.25C196.25 9.21 196.64 9.11 196.99 8.96C197.34 8.81 197.62 8.61 197.88 8.37C198.11 8.13 198.31 7.85 198.44 7.55C198.56 7.24 198.63 6.89 198.63 6.51C198.63 5.66 198.35 5.03 197.79 4.58C197.23 4.14 196.38 3.92 195.23 3.92L192.82 3.92L191.65 3.92L191.65 4.19C191.65 4.34 191.73 4.42 191.91 4.44L192.05 4.44C192.12 4.44 192.22 4.45 192.36 4.45C192.50 4.45 192.65 4.47 192.82 4.47L192.82 13.26C192.65 13.26 192.50 13.27 192.36 13.27C192.22 13.27 192.12 13.29 192.05 13.29L191.91 13.29C191.73 13.30 191.63 13.38 191.63 13.54L191.63 13.82L192.82 13.82L193.54 13.82L194.71 13.82L194.71 13.54C194.71 13.38 194.61 13.30 194.43 13.29L194.29 13.29C194.22 13.29 194.12 13.27 193.98 13.27C193.84 13.27 193.70 13.26 193.54 13.26L193.54 9.34L194.71 9.34C194.91 9.34 195.05 9.35 195.13 9.39C195.22 9.44 195.30 9.52 195.38 9.62L198.56 13.64C198.62 13.71 198.66 13.75 198.72 13.78C198.77 13.80 198.84 13.82 198.91 13.82L198.98 13.82L199.53 13.82L199.89 13.82L199.89 13.54C199.89 13.38 199.81 13.30 199.63 13.29ZM195.13 8.81L193.54 8.81L193.54 4.48L195.23 4.48C196.11 4.48 196.78 4.66 197.25 5.00C197.71 5.33 197.93 5.87 197.93 6.57C197.93 6.92 197.88 7.21 197.75 7.49C197.62 7.77 197.43 7.99 197.19 8.19C196.95 8.39 196.66 8.55 196.31 8.65C195.96 8.75 195.57 8.81 195.13 8.81ZM216.09 13.29L215.99 13.29L215.81 13.29C215.73 13.29 215.64 13.27 215.56 13.27L212.59 9.53C212.51 9.42 212.39 9.32 212.28 9.25C212.72 9.21 213.11 9.11 213.46 8.96C213.81 8.81 214.09 8.61 214.34 8.37C214.58 8.13 214.77 7.85 214.90 7.55C215.03 7.24 215.10 6.89 215.10 6.51C215.10 5.66 214.82 5.03 214.26 4.58C213.70 4.14 212.84 3.92 211.69 3.92L209.29 3.92L208.11 3.92L208.11 4.19C208.11 4.34 208.19 4.42 208.38 4.44L208.52 4.44C208.59 4.44 208.68 4.45 208.82 4.45C208.96 4.45 209.12 4.47 209.29 4.47L209.29 13.26C209.12 13.26 208.96 13.27 208.82 13.27C208.68 13.27 208.59 13.29 208.52 13.29L208.38 13.29C208.19 13.30 208.10 13.38 208.10 13.54L208.10 13.82L209.29 13.82L210.00 13.82L211.18 13.82L211.18 13.54C211.18 13.38 211.08 13.30 210.90 13.29L210.76 13.29C210.69 13.29 210.59 13.27 210.45 13.27C210.31 13.27 210.17 13.26 210.00 13.26L210.00 9.34L211.18 9.34C211.37 9.34 211.51 9.35 211.60 9.39C211.68 9.44 211.76 9.52 211.85 9.62L215.03 13.64C215.08 13.71 215.12 13.75 215.18 13.78C215.24 13.80 215.31 13.82 215.38 13.82L215.45 13.82L215.99 13.82L216.36 13.82L216.36 13.54C216.36 13.38 216.27 13.30 216.09 13.29ZM211.60 8.81L210.00 8.81L210.00 4.48L211.69 4.48C212.58 4.48 213.25 4.66 213.71 5.00C214.17 5.33 214.40 5.87 214.40 6.57C214.40 6.92 214.34 7.21 214.21 7.49C214.09 7.77 213.89 7.99 213.65 8.19C213.42 8.39 213.12 8.55 212.77 8.65C212.42 8.75 212.03 8.81 211.60 8.81ZM233.52 8.86C233.52 8.11 233.39 7.41 233.17 6.79C232.95 6.17 232.62 5.64 232.20 5.19C231.78 4.75 231.29 4.40 230.72 4.16C230.15 3.92 229.49 3.79 228.79 3.79C228.09 3.79 227.46 3.92 226.88 4.16C226.31 4.40 225.81 4.75 225.39 5.19C224.97 5.64 224.64 6.17 224.42 6.79C224.20 7.41 224.07 8.11 224.07 8.86C224.07 9.63 224.20 10.33 224.42 10.95C224.64 11.56 224.97 12.10 225.39 12.54C225.81 12.99 226.31 13.33 226.88 13.57C227.46 13.80 228.09 13.93 228.79 13.93C229.49 13.93 230.15 13.80 230.72 13.57C231.29 13.33 231.78 12.99 232.20 12.54C232.62 12.10 232.95 11.56 233.17 10.95C233.39 10.33 233.52 9.63 233.52 8.86ZM232.76 8.86C232.76 9.56 232.68 10.18 232.48 10.72C232.29 11.27 232.02 11.75 231.67 12.12C231.32 12.50 230.90 12.81 230.41 13.01C229.92 13.20 229.39 13.30 228.79 13.30C228.20 13.30 227.67 13.20 227.18 13.01C226.69 12.81 226.27 12.50 225.92 12.12C225.57 11.75 225.29 11.27 225.09 10.72C224.90 10.18 224.81 9.56 224.81 8.86C224.81 8.18 224.90 7.55 225.09 7.00C225.29 6.45 225.57 5.98 225.92 5.60C226.27 5.22 226.69 4.91 227.18 4.72C227.67 4.52 228.20 4.41 228.79 4.41C229.39 4.41 229.92 4.52 230.41 4.72C230.90 4.91 231.32 5.22 231.67 5.60C232.02 5.98 232.29 6.45 232.48 7.00C232.68 7.55 232.76 8.18 232.76 8.86ZM255.04 3.92L254.49 3.92L254.45 3.92L252.98 3.92L252.98 4.19C252.98 4.34 253.06 4.42 253.25 4.44L253.37 4.44C253.43 4.44 253.53 4.45 253.67 4.45C253.81 4.45 253.95 4.47 254.11 4.47L251.73 12.24C251.71 12.33 251.68 12.43 251.66 12.54C251.65 12.66 251.62 12.75 251.59 12.87C251.57 12.75 251.55 12.63 251.52 12.53L251.44 12.24L248.64 4.10C248.61 4.05 248.58 3.99 248.54 3.96C248.50 3.93 248.44 3.92 248.37 3.92L248.18 3.92C248.11 3.92 248.05 3.93 248.01 3.98C247.97 4.02 247.93 4.05 247.91 4.10L245.11 12.25C245.08 12.35 245.06 12.43 245.03 12.54C245.00 12.64 244.99 12.75 244.96 12.88C244.94 12.78 244.92 12.67 244.89 12.54C244.87 12.43 244.85 12.33 244.82 12.24L242.44 4.47C242.61 4.47 242.75 4.45 242.87 4.45C243.00 4.45 243.08 4.44 243.14 4.44L243.25 4.44C243.43 4.42 243.53 4.34 243.53 4.19L243.53 3.92L242.06 3.92L241.47 3.92L240.87 3.92L240.87 4.19C240.87 4.34 240.97 4.42 241.15 4.44L241.25 4.44C241.29 4.44 241.33 4.45 241.40 4.45C241.47 4.45 241.56 4.47 241.64 4.47L244.59 13.82L245.22 13.82L248.16 5.22C248.21 5.11 248.23 5.00 248.26 4.87C248.29 5.00 248.32 5.11 248.36 5.22L251.29 13.82L251.93 13.82L254.87 4.47C254.95 4.47 255.02 4.45 255.09 4.45C255.16 4.45 255.22 4.44 255.26 4.44L255.36 4.44C255.54 4.42 255.63 4.34 255.63 4.19L255.63 3.92ZM264.94 3.91L264.35 3.91L264.35 5.95L264.42 7.03C264.43 7.11 264.45 7.17 264.49 7.21C264.53 7.25 264.57 7.28 264.64 7.28C264.73 7.28 264.78 7.25 264.81 7.21C264.84 7.17 264.87 7.11 264.88 7.03L264.94 5.95ZM279.36 9.91C279.22 9.65 279.02 9.39 278.78 9.21C278.54 9.03 278.29 8.88 278.00 8.75C277.70 8.62 277.38 8.51 277.07 8.41C276.77 8.32 276.46 8.20 276.16 8.11C275.87 7.99 275.60 7.87 275.37 7.71C275.13 7.56 274.95 7.38 274.81 7.15C274.67 6.93 274.58 6.65 274.58 6.31C274.58 6.06 274.64 5.82 274.74 5.59C274.83 5.35 274.97 5.15 275.16 4.97C275.34 4.79 275.56 4.65 275.84 4.55C276.12 4.45 276.43 4.40 276.79 4.40C277.47 4.40 278.08 4.51 278.64 4.75C278.68 5.54 278.71 5.99 278.71 6.06C278.73 6.29 278.81 6.41 279.01 6.41L279.34 6.41L279.34 4.38C278.46 4.00 277.62 3.81 276.79 3.81C276.33 3.81 275.93 3.88 275.56 4.02C275.20 4.16 274.90 4.34 274.67 4.58C274.43 4.82 274.23 5.08 274.11 5.39C273.98 5.70 273.92 6.02 273.92 6.36C273.92 6.78 273.99 7.14 274.13 7.42C274.27 7.70 274.47 7.92 274.71 8.12C274.95 8.32 275.20 8.46 275.49 8.58C275.79 8.71 276.11 8.82 276.42 8.92C276.72 9.02 277.02 9.11 277.33 9.21C277.62 9.31 277.89 9.45 278.12 9.60C278.36 9.76 278.54 9.94 278.68 10.16C278.82 10.39 278.89 10.68 278.89 11.03C278.89 11.35 278.84 11.66 278.73 11.94C278.61 12.22 278.46 12.46 278.25 12.67C278.04 12.88 277.77 13.05 277.47 13.16C277.16 13.29 276.81 13.33 276.42 13.33C275.63 13.33 274.97 13.20 274.44 12.95C274.43 12.75 274.43 12.54 274.41 12.32C274.40 12.10 274.40 11.91 274.39 11.76C274.37 11.61 274.37 11.52 274.37 11.51C274.36 11.28 274.26 11.17 274.06 11.17L273.73 11.17L273.73 13.02L273.73 13.20L273.73 13.38C274.58 13.75 275.46 13.93 276.39 13.93C276.89 13.93 277.34 13.85 277.73 13.69C278.12 13.54 278.46 13.31 278.73 13.05C278.99 12.78 279.22 12.46 279.36 12.10C279.50 11.73 279.57 11.34 279.57 10.92C279.57 10.51 279.50 10.18 279.36 9.91ZM305.93 12.21C305.90 12.18 305.86 12.15 305.82 12.15C305.79 12.15 305.77 12.15 305.75 12.17C305.73 12.18 305.70 12.21 305.68 12.22C305.48 12.40 305.27 12.56 305.07 12.70C304.88 12.84 304.67 12.94 304.43 13.03C304.19 13.13 303.94 13.20 303.66 13.24C303.38 13.29 303.07 13.31 302.72 13.31C302.16 13.31 301.62 13.22 301.14 13.01C300.65 12.81 300.24 12.52 299.89 12.14C299.54 11.76 299.25 11.28 299.05 10.74C298.86 10.19 298.76 9.56 298.76 8.86C298.76 8.18 298.86 7.56 299.05 7.01C299.26 6.47 299.54 6.01 299.91 5.61C300.27 5.24 300.71 4.94 301.21 4.73C301.71 4.52 302.26 4.42 302.86 4.42C303.76 4.42 304.58 4.56 305.31 4.89C305.35 5.78 305.40 6.30 305.40 6.41C305.41 6.64 305.49 6.75 305.69 6.75L306.03 6.75L306.03 4.51C304.85 4.03 303.79 3.81 302.86 3.81C302.15 3.81 301.50 3.92 300.90 4.17C300.31 4.42 299.78 4.76 299.36 5.21C298.93 5.66 298.61 6.19 298.37 6.80C298.13 7.42 298.02 8.11 298.02 8.86C298.02 9.63 298.14 10.32 298.37 10.95C298.59 11.58 298.91 12.10 299.32 12.54C299.73 12.99 300.22 13.33 300.79 13.57C301.36 13.80 301.98 13.93 302.67 13.93C303.07 13.93 303.45 13.90 303.80 13.83C304.14 13.76 304.46 13.66 304.75 13.54C305.03 13.41 305.30 13.26 305.54 13.09C305.77 12.91 306.00 12.73 306.21 12.50ZM323.95 4.44C324.13 4.42 324.23 4.34 324.23 4.19L324.23 3.92L323.05 3.92L322.32 3.92L321.15 3.92L321.15 4.19C321.15 4.34 321.24 4.42 321.43 4.44L321.55 4.44C321.62 4.44 321.73 4.45 321.87 4.45C322.01 4.45 322.15 4.47 322.32 4.47L322.32 8.53L316.12 8.53L316.12 4.47C316.29 4.47 316.44 4.45 316.58 4.45C316.72 4.45 316.82 4.44 316.89 4.44L317.03 4.44C317.21 4.42 317.30 4.34 317.30 4.19L317.30 3.92L316.12 3.92L315.41 3.92L314.22 3.92L314.22 4.19C314.22 4.34 314.31 4.42 314.50 4.44L314.64 4.44C314.71 4.44 314.80 4.45 314.94 4.45C315.08 4.45 315.24 4.47 315.41 4.47L315.41 13.26C315.24 13.26 315.08 13.27 314.94 13.27C314.80 13.27 314.71 13.29 314.64 13.29L314.50 13.29C314.31 13.30 314.22 13.38 314.22 13.54L314.22 13.82L315.41 13.82L316.12 13.82L317.30 13.82L317.30 13.54C317.30 13.38 317.21 13.30 317.03 13.29L316.89 13.29C316.82 13.29 316.72 13.27 316.58 13.27C316.44 13.27 316.29 13.26 316.12 13.26L316.12 9.07L322.32 9.07L322.32 13.26C322.15 13.26 322.01 13.27 321.87 13.27C321.73 13.27 321.62 13.29 321.55 13.29L321.43 13.29C321.24 13.30 321.15 13.38 321.15 13.54L321.15 13.82L322.32 13.82L323.05 13.82L324.23 13.82L324.23 13.54C324.23 13.38 324.13 13.30 323.95 13.29L323.82 13.29C323.75 13.29 323.64 13.27 323.50 13.27C323.36 13.27 323.22 13.26 323.05 13.26L323.05 4.47C323.22 4.47 323.36 4.45 323.50 4.45C323.64 4.45 323.75 4.44 323.82 4.44ZM341.87 13.22L341.40 13.17L337.62 3.91L336.91 3.91L333.12 13.17L332.67 13.22C332.49 13.23 332.40 13.33 332.40 13.50L332.40 13.82L332.85 13.82L333.14 13.82L333.40 13.82L333.49 13.82L334.81 13.82L334.81 13.50C334.81 13.31 334.70 13.23 334.49 13.22C334.47 13.22 334.45 13.20 334.40 13.20C334.36 13.20 334.31 13.19 334.21 13.19C334.11 13.19 333.98 13.19 333.84 13.17L334.82 10.75L334.89 10.57L339.63 10.57L339.70 10.75L340.68 13.17C340.54 13.19 340.42 13.19 340.33 13.19C340.23 13.19 340.16 13.20 340.12 13.20C340.07 13.20 340.05 13.22 340.03 13.22C339.82 13.23 339.71 13.31 339.71 13.50L339.71 13.82L341.03 13.82L341.12 13.82L341.39 13.82L341.67 13.82L342.13 13.82L342.13 13.50C342.13 13.33 342.05 13.23 341.87 13.22ZM337.06 5.22C337.09 5.14 337.13 5.04 337.16 4.94C337.19 4.84 337.23 4.75 337.26 4.63C337.29 4.75 337.33 4.84 337.36 4.94C337.39 5.04 337.43 5.12 337.46 5.21L339.42 10.04L335.12 10.04ZM356.73 11.97C356.54 11.97 356.45 12.08 356.44 12.31C356.44 12.32 356.44 12.38 356.43 12.43C356.41 12.49 356.41 12.59 356.40 12.71C356.38 12.84 356.37 13.01 356.36 13.20L352.27 13.20L352.27 4.47C352.44 4.47 352.58 4.45 352.72 4.45C352.86 4.45 352.97 4.44 353.04 4.44L353.16 4.44C353.35 4.42 353.44 4.34 353.44 4.19L353.44 3.92L352.27 3.92L351.55 3.92L350.36 3.92L350.36 4.19C350.36 4.34 350.46 4.42 350.64 4.44L350.78 4.44C350.85 4.44 350.95 4.45 351.09 4.45C351.23 4.45 351.39 4.47 351.55 4.47L351.55 13.26C351.39 13.26 351.23 13.27 351.09 13.27C350.95 13.27 350.85 13.29 350.78 13.29L350.64 13.29C350.46 13.30 350.36 13.38 350.36 13.54L350.36 13.82L351.55 13.82L356.83 13.82L356.96 13.82L357.08 13.82L357.08 13.55L357.08 12.99L357.08 11.97L356.80 11.97ZM371.88 11.97C371.69 11.97 371.60 12.08 371.59 12.31C371.59 12.32 371.59 12.38 371.57 12.43C371.56 12.49 371.56 12.59 371.55 12.71C371.53 12.84 371.52 13.01 371.50 13.20L367.42 13.20L367.42 4.47C367.58 4.47 367.72 4.45 367.86 4.45C368.00 4.45 368.12 4.44 368.19 4.44L368.31 4.44C368.49 4.42 368.59 4.34 368.59 4.19L368.59 3.92L367.42 3.92L366.70 3.92L365.51 3.92L365.51 4.19C365.51 4.34 365.61 4.42 365.79 4.44L365.93 4.44C366.00 4.44 366.10 4.45 366.24 4.45C366.38 4.45 366.53 4.47 366.70 4.47L366.70 13.26C366.53 13.26 366.38 13.27 366.24 13.27C366.10 13.27 366.00 13.29 365.93 13.29L365.79 13.29C365.61 13.30 365.51 13.38 365.51 13.54L365.51 13.82L366.70 13.82L371.98 13.82L372.11 13.82L372.23 13.82L372.23 13.55L372.23 12.99L372.23 11.97L371.95 11.97ZM381.85 3.92L380.66 3.92L380.66 4.19C380.66 4.34 380.76 4.42 380.94 4.44L381.08 4.44C381.15 4.44 381.25 4.45 381.39 4.45C381.53 4.45 381.68 4.47 381.85 4.47L381.85 13.26C381.68 13.26 381.53 13.27 381.39 13.27C381.25 13.27 381.15 13.29 381.08 13.29L380.94 13.29C380.76 13.30 380.67 13.38 380.67 13.54L380.67 13.82L381.85 13.82L387.79 13.82L387.79 13.22L387.79 11.76L387.44 11.76C387.24 11.76 387.16 11.89 387.14 12.11C387.14 12.14 387.13 12.19 387.13 12.29C387.13 12.39 387.13 12.53 387.11 12.74C387.10 12.95 387.09 13.09 387.09 13.22L382.56 13.22L382.56 9.09L386.51 9.09L386.51 8.51L382.56 8.51L382.56 4.51L387.09 4.51C387.11 5.12 387.14 5.50 387.14 5.63C387.16 5.85 387.24 5.96 387.44 5.96L387.79 5.96L387.79 4.51L387.79 3.92ZM405.20 3.92L404.57 3.92L403.35 3.92L403.35 4.19C403.35 4.34 403.45 4.42 403.63 4.44L403.77 4.44C403.84 4.44 403.96 4.45 404.10 4.45C404.24 4.45 404.40 4.47 404.57 4.47L404.57 12.22C404.57 12.35 404.57 12.49 404.59 12.63L398.17 4.05C398.13 3.99 398.10 3.95 398.06 3.93C398.02 3.92 397.98 3.91 397.91 3.91L397.56 3.91L396.37 3.91L396.37 4.19C396.37 4.34 396.47 4.42 396.65 4.44L396.79 4.44C396.86 4.44 396.96 4.45 397.10 4.45C397.24 4.45 397.39 4.47 397.56 4.47L397.56 13.26C397.39 13.26 397.24 13.27 397.10 13.27C396.96 13.27 396.86 13.29 396.79 13.29L396.65 13.29C396.47 13.30 396.37 13.38 396.37 13.54L396.37 13.82L397.56 13.82L398.17 13.82L399.39 13.82L399.39 13.54C399.39 13.38 399.29 13.30 399.11 13.29L398.97 13.29C398.90 13.29 398.78 13.27 398.64 13.27C398.50 13.27 398.34 13.26 398.17 13.26L398.17 5.49C398.17 5.36 398.17 5.22 398.16 5.08L404.60 13.68C404.67 13.78 404.74 13.82 404.85 13.82L405.20 13.82L405.20 4.47C405.37 4.47 405.51 4.45 405.65 4.45C405.79 4.45 405.90 4.44 405.97 4.44L406.10 4.44C406.28 4.42 406.38 4.34 406.38 4.19L406.38 3.92ZM420.06 9.32L420.06 9.72C420.06 9.76 420.08 9.80 420.11 9.83C420.14 9.86 420.18 9.87 420.24 9.87L422.14 9.87L422.14 12.54C421.92 12.67 421.69 12.78 421.48 12.88C421.27 12.98 421.04 13.08 420.80 13.15C420.56 13.22 420.29 13.27 420.01 13.30C419.73 13.33 419.43 13.34 419.09 13.34C418.47 13.34 417.91 13.24 417.41 13.03C416.91 12.82 416.47 12.53 416.11 12.15C415.74 11.77 415.46 11.30 415.27 10.74C415.07 10.18 414.96 9.56 414.96 8.86C414.96 8.18 415.07 7.56 415.27 7.01C415.46 6.47 415.74 5.99 416.11 5.61C416.47 5.24 416.92 4.94 417.44 4.73C417.96 4.52 418.53 4.42 419.17 4.42C420.35 4.42 421.29 4.58 421.97 4.90C422.02 5.81 422.04 6.31 422.04 6.41C422.06 6.64 422.16 6.75 422.35 6.75L422.69 6.75L422.69 4.51C422.25 4.31 421.69 4.14 420.99 4.00C420.29 3.86 419.71 3.81 419.20 3.81C418.45 3.81 417.76 3.92 417.14 4.16C416.53 4.40 416.01 4.75 415.58 5.18C415.14 5.61 414.82 6.15 414.58 6.78C414.34 7.39 414.23 8.09 414.23 8.86C414.23 9.63 414.34 10.32 414.58 10.95C414.82 11.58 415.14 12.10 415.56 12.54C415.98 12.99 416.50 13.33 417.09 13.57C417.68 13.80 418.32 13.93 419.03 13.93C419.45 13.93 419.83 13.90 420.18 13.86C420.53 13.80 420.85 13.73 421.16 13.65C421.47 13.55 421.75 13.44 422.02 13.30C422.28 13.16 422.53 13.01 422.79 12.84L422.79 9.32ZM432.38 3.92L431.19 3.92L431.19 4.19C431.19 4.34 431.28 4.42 431.47 4.44L431.61 4.44C431.68 4.44 431.77 4.45 431.91 4.45C432.05 4.45 432.21 4.47 432.38 4.47L432.38 13.26C432.21 13.26 432.05 13.27 431.91 13.27C431.77 13.27 431.68 13.29 431.61 13.29L431.47 13.29C431.28 13.30 431.20 13.38 431.20 13.54L431.20 13.82L432.38 13.82L438.31 13.82L438.31 13.22L438.31 11.76L437.96 11.76C437.77 11.76 437.68 11.89 437.67 12.11C437.67 12.14 437.65 12.19 437.65 12.29C437.65 12.39 437.65 12.53 437.64 12.74C437.63 12.95 437.61 13.09 437.61 13.22L433.09 13.22L433.09 9.09L437.04 9.09L437.04 8.51L433.09 8.51L433.09 4.51L437.61 4.51C437.64 5.12 437.67 5.50 437.67 5.63C437.68 5.85 437.77 5.96 437.96 5.96L438.31 5.96L438.31 4.51L438.31 3.92ZM452.62 9.91C452.48 9.65 452.28 9.39 452.05 9.21C451.81 9.03 451.56 8.88 451.26 8.75C450.97 8.62 450.65 8.51 450.34 8.41C450.03 8.32 449.72 8.20 449.43 8.11C449.13 7.99 448.87 7.87 448.63 7.71C448.39 7.56 448.21 7.38 448.07 7.15C447.93 6.93 447.85 6.65 447.85 6.31C447.85 6.06 447.90 5.82 448.00 5.59C448.10 5.35 448.24 5.15 448.42 4.97C448.60 4.79 448.83 4.65 449.11 4.55C449.39 4.45 449.69 4.40 450.06 4.40C450.73 4.40 451.35 4.51 451.91 4.75C451.95 5.54 451.98 5.99 451.98 6.06C451.99 6.29 452.07 6.41 452.27 6.41L452.61 6.41L452.61 4.38C451.72 4.00 450.88 3.81 450.06 3.81C449.60 3.81 449.19 3.88 448.83 4.02C448.46 4.16 448.17 4.34 447.93 4.58C447.69 4.82 447.50 5.08 447.37 5.39C447.24 5.70 447.19 6.02 447.19 6.36C447.19 6.78 447.26 7.14 447.40 7.42C447.54 7.70 447.73 7.92 447.97 8.12C448.21 8.32 448.46 8.46 448.76 8.58C449.05 8.71 449.37 8.82 449.68 8.92C449.99 9.02 450.28 9.11 450.59 9.21C450.88 9.31 451.15 9.45 451.39 9.60C451.63 9.76 451.81 9.94 451.95 10.16C452.09 10.39 452.16 10.68 452.16 11.03C452.16 11.35 452.10 11.66 451.99 11.94C451.88 12.22 451.72 12.46 451.51 12.67C451.30 12.88 451.04 13.05 450.73 13.16C450.42 13.29 450.07 13.33 449.68 13.33C448.90 13.33 448.24 13.20 447.71 12.95C447.69 12.75 447.69 12.54 447.68 12.32C447.66 12.10 447.66 11.91 447.65 11.76C447.64 11.61 447.64 11.52 447.64 11.51C447.62 11.28 447.52 11.17 447.33 11.17L446.99 11.17L446.99 13.02L446.99 13.20L446.99 13.38C447.85 13.75 448.73 13.93 449.65 13.93C450.16 13.93 450.60 13.85 451.00 13.69C451.39 13.54 451.72 13.31 451.99 13.05C452.26 12.78 452.48 12.46 452.62 12.10C452.76 11.73 452.83 11.34 452.83 10.92C452.83 10.51 452.76 10.18 452.62 9.91ZM478.98 3.92L478.79 3.92L471.49 3.92L471.28 3.92L471.18 3.92L471.18 5.96L471.53 5.96C471.73 5.96 471.81 5.85 471.83 5.63C471.83 5.53 471.86 5.17 471.88 4.52L474.78 4.52L474.78 13.26C474.61 13.26 474.47 13.27 474.33 13.27C474.19 13.27 474.08 13.29 474.01 13.29L473.89 13.29C473.70 13.30 473.61 13.38 473.61 13.54L473.61 13.82L474.78 13.82L475.50 13.82L476.69 13.82L476.69 13.54C476.69 13.38 476.59 13.30 476.41 13.29L476.27 13.29C476.20 13.29 476.10 13.27 475.96 13.27C475.82 13.27 475.66 13.26 475.50 13.26L475.50 4.52L478.38 4.52C478.42 5.24 478.44 5.60 478.44 5.63C478.45 5.85 478.55 5.96 478.74 5.96L479.08 5.96L479.08 3.92ZM496.37 8.86C496.37 8.11 496.24 7.41 496.02 6.79C495.80 6.17 495.47 5.64 495.05 5.19C494.63 4.75 494.14 4.40 493.57 4.16C493.00 3.92 492.34 3.79 491.64 3.79C490.94 3.79 490.31 3.92 489.73 4.16C489.16 4.40 488.66 4.75 488.24 5.19C487.82 5.64 487.49 6.17 487.27 6.79C487.05 7.41 486.92 8.11 486.92 8.86C486.92 9.63 487.05 10.33 487.27 10.95C487.49 11.56 487.82 12.10 488.24 12.54C488.66 12.99 489.16 13.33 489.73 13.57C490.31 13.80 490.94 13.93 491.64 13.93C492.34 13.93 493.00 13.80 493.57 13.57C494.14 13.33 494.63 12.99 495.05 12.54C495.47 12.10 495.80 11.56 496.02 10.95C496.24 10.33 496.37 9.63 496.37 8.86ZM495.61 8.86C495.61 9.56 495.53 10.18 495.33 10.72C495.14 11.27 494.87 11.75 494.52 12.12C494.17 12.50 493.75 12.81 493.26 13.01C492.77 13.20 492.24 13.30 491.64 13.30C491.05 13.30 490.52 13.20 490.03 13.01C489.54 12.81 489.12 12.50 488.77 12.12C488.42 11.75 488.14 11.27 487.94 10.72C487.75 10.18 487.66 9.56 487.66 8.86C487.66 8.18 487.75 7.55 487.94 7.00C488.14 6.45 488.42 5.98 488.77 5.60C489.12 5.22 489.54 4.91 490.03 4.72C490.52 4.52 491.05 4.41 491.64 4.41C492.24 4.41 492.77 4.52 493.26 4.72C493.75 4.91 494.17 5.22 494.52 5.60C494.87 5.98 495.14 6.45 495.33 7.00C495.53 7.55 495.61 8.18 495.61 8.86ZM513.65 6.80C513.42 6.19 513.10 5.68 512.68 5.25C512.26 4.82 511.77 4.48 511.20 4.26C510.62 4.03 509.96 3.92 509.26 3.92L505.83 3.92L504.64 3.92L504.64 4.19C504.64 4.34 504.74 4.42 504.92 4.44L505.06 4.44C505.13 4.44 505.23 4.45 505.37 4.45C505.51 4.45 505.67 4.47 505.83 4.47L505.83 13.26C505.67 13.26 505.51 13.27 505.37 13.27C505.23 13.27 505.13 13.29 505.06 13.29L504.92 13.29C504.74 13.30 504.64 13.38 504.64 13.54L504.64 13.82L505.83 13.82L509.26 13.82C509.96 13.82 510.62 13.71 511.20 13.48C511.77 13.26 512.26 12.92 512.68 12.49C513.10 12.05 513.42 11.54 513.65 10.92C513.87 10.30 514.00 9.63 514.00 8.86C514.00 8.11 513.87 7.42 513.65 6.80ZM512.96 10.72C512.76 11.27 512.51 11.72 512.16 12.10C511.81 12.47 511.39 12.75 510.90 12.95C510.41 13.15 509.87 13.24 509.26 13.24L506.55 13.24L506.55 4.49L509.26 4.49C509.87 4.49 510.41 4.59 510.90 4.79C511.39 4.98 511.81 5.26 512.16 5.64C512.51 6.02 512.76 6.47 512.96 7.01C513.16 7.56 513.25 8.18 513.25 8.86C513.25 9.56 513.16 10.18 512.96 10.72ZM530.95 13.22L530.49 13.17L526.71 3.91L525.99 3.91L522.20 13.17L521.75 13.22C521.57 13.23 521.49 13.33 521.49 13.50L521.49 13.82L521.93 13.82L522.23 13.82L522.48 13.82L522.58 13.82L523.89 13.82L523.89 13.50C523.89 13.31 523.78 13.23 523.57 13.22C523.56 13.22 523.53 13.20 523.49 13.20C523.45 13.20 523.39 13.19 523.29 13.19C523.19 13.19 523.07 13.19 522.93 13.17L523.91 10.75L523.98 10.57L528.71 10.57L528.78 10.75L529.76 13.17C529.62 13.19 529.51 13.19 529.41 13.19C529.31 13.19 529.24 13.20 529.20 13.20C529.16 13.20 529.13 13.22 529.12 13.22C528.91 13.23 528.79 13.31 528.79 13.50L528.79 13.82L530.11 13.82L530.21 13.82L530.47 13.82L530.75 13.82L531.22 13.82L531.22 13.50C531.22 13.33 531.13 13.23 530.95 13.22ZM526.15 5.22C526.18 5.14 526.22 5.04 526.25 4.94C526.27 4.84 526.32 4.75 526.34 4.63C526.37 4.75 526.41 4.84 526.44 4.94C526.47 5.04 526.51 5.12 526.54 5.21L528.50 10.04L524.20 10.04ZM545.97 3.92L545.90 3.92L545.34 3.92L545.23 3.92L543.83 3.92L543.83 4.19C543.83 4.34 543.93 4.42 544.11 4.44L544.22 4.44C544.28 4.44 544.35 4.45 544.46 4.45C544.57 4.45 544.70 4.47 544.84 4.47L542.25 8.64C542.18 8.75 542.12 8.85 542.08 8.95C542.04 9.04 542.00 9.16 541.95 9.25C541.91 9.16 541.87 9.04 541.83 8.95C541.79 8.85 541.73 8.75 541.66 8.64L539.06 4.47C539.20 4.47 539.32 4.45 539.43 4.45C539.55 4.45 539.63 4.44 539.69 4.44L539.78 4.44C539.97 4.42 540.06 4.34 540.06 4.19L540.06 3.92L538.66 3.92L538.55 3.92L537.99 3.92L537.92 3.92L537.47 3.92L537.47 4.19C537.47 4.34 537.57 4.42 537.75 4.44C537.99 4.45 538.17 4.47 538.27 4.47L541.59 9.73L541.59 13.26C541.42 13.26 541.27 13.27 541.13 13.27C540.99 13.27 540.89 13.29 540.82 13.29L540.69 13.29C540.51 13.30 540.41 13.38 540.41 13.54L540.41 13.82L541.59 13.82L542.30 13.82L543.48 13.82L543.48 13.54C543.48 13.38 543.40 13.30 543.21 13.29L543.07 13.29C543.00 13.29 542.91 13.27 542.77 13.27C542.63 13.27 542.47 13.26 542.30 13.26L542.30 9.73L545.62 4.47C545.73 4.47 545.90 4.45 546.14 4.44C546.32 4.42 546.42 4.34 546.42 4.19L546.42 3.92Z"></path></g></svg>