<?xml version="1.0" encoding="utf-8"?>
<!-- Generator: Adobe Illustrator 16.0.0, SVG Export Plug-In . SVG Version: 6.00 Build 0)  -->
<!DOCTYPE svg PUBLIC "-//W3C//DTD SVG 1.1//EN" "http://www.w3.org/Graphics/SVG/1.1/DTD/svg11.dtd">
<svg version="1.1" id="Capa_1" xmlns="http://www.w3.org/2000/svg" xmlns:xlink="http://www.w3.org/1999/xlink" x="0px" y="0px"
	 width="190.252px" height="190.252px" viewBox="0 0 190.252 190.252" enable-background="new 0 0 190.252 190.252"
	 xml:space="preserve">
<circle fill="#96CAE3" cx="99.646" cy="94.601" r="80.524"/>
<g>
	<path fill="#1197D4" d="M69.654,83.481c-2.114,0-3.831,1.708-3.831,3.824v18.484c0,2.106,1.717,3.822,3.831,3.822
		c2.106,0,3.814-1.716,3.814-3.822V87.305C73.469,85.188,71.761,83.481,69.654,83.481z"/>
	<path fill="#1197D4" d="M129.639,83.481c-2.106,0-3.822,1.708-3.822,3.824v18.484c0,2.106,1.716,3.822,3.822,3.822
		c2.114,0,3.831-1.716,3.831-3.822V87.305C133.47,85.188,131.753,83.481,129.639,83.481z"/>
	<path fill="#1197D4" d="M76.9,83.481c0,0.048,0,0.104,0,0.152v34.104c0,3.168,2.57,5.73,5.731,5.73h6.145v9.721
		c0,2.115,1.708,3.831,3.814,3.831c2.115,0,3.831-1.716,3.831-3.831v-9.721h6.528v9.721c0,2.115,1.717,3.831,3.822,3.831
		c2.117,0,3.825-1.716,3.825-3.831v-9.721h6.136c3.168,0,5.738-2.562,5.738-5.73V83.633c0-0.049-0.008-0.104-0.017-0.152H76.9z"/>
	<path fill="#1197D4" d="M110.805,60.265l4.093-7.623l-0.838-0.461l-4.101,7.628c-3.091-1.571-6.579-2.466-10.28-2.466
		c-3.511,0-6.831,0.807-9.8,2.243l-3.976-7.405l-0.846,0.461l3.959,7.366c-7.071,3.8-11.893,11.23-11.955,19.802h45.243
		C122.248,71.43,117.628,64.128,110.805,60.265z M88.026,71.094c-1.182,0-2.155-0.964-2.155-2.153c0-1.181,0.974-2.155,2.155-2.155
		c1.189,0,2.155,0.974,2.155,2.155C90.182,70.13,89.216,71.094,88.026,71.094z M110.972,71.094c-1.189,0-2.147-0.964-2.147-2.153
		c0-1.181,0.958-2.155,2.147-2.155s2.147,0.974,2.147,2.155C113.119,70.13,112.161,71.094,110.972,71.094z"/>
</g>
</svg>
