<?xml version="1.0" encoding="utf-8"?>
<!-- Generator: Adobe Illustrator 16.0.0, SVG Export Plug-In . SVG Version: 6.00 Build 0)  -->
<!DOCTYPE svg PUBLIC "-//W3C//DTD SVG 1.1//EN" "http://www.w3.org/Graphics/SVG/1.1/DTD/svg11.dtd">
<svg version="1.1" id="Capa_1" xmlns="http://www.w3.org/2000/svg" xmlns:xlink="http://www.w3.org/1999/xlink" x="0px" y="0px"
	 width="190.252px" height="190.252px" viewBox="0 0 190.252 190.252" enable-background="new 0 0 190.252 190.252"
	 xml:space="preserve">
<circle fill="#96CAE3" cx="97.646" cy="94.69" r="80.524"/>
<g>
	<path fill-rule="evenodd" clip-rule="evenodd" fill="#1197D4" d="M58.432,67.214c0.222-0.203,0.636-0.868,1.218-1.08
		c12.378-4.453,24.769-8.869,37.18-13.236c0.643-0.226,1.521-0.111,2.188,0.124c12.037,4.266,24.045,8.601,36.088,12.834
		c1.467,0.519,1.897,1.175,1.715,2.708c-1.599,13.409-3.119,26.827-4.664,40.24c-0.313,2.714-0.525,5.447-0.997,8.131
		c-0.15,0.854-0.81,1.907-1.545,2.318c-10.26,5.784-20.564,11.485-30.896,17.136c-0.583,0.317-1.652,0.276-2.246-0.047
		c-10.264-5.614-20.504-11.272-30.694-17.022c-0.784-0.443-1.55-1.588-1.657-2.49c-1.795-14.798-3.486-29.61-5.19-44.419
		C58.751,70.859,58.628,69.304,58.432,67.214z M97.643,61.748c-8.255,18.539-16.352,36.717-24.612,55.276
		c2.697,0,5.023-0.09,7.334,0.03c1.508,0.079,2.199-0.5,2.712-1.894c1.313-3.541,2.804-7.022,4.181-10.43c7.071,0,13.873,0,20.775,0
		c1.432,3.533,2.818,7.073,4.32,10.563c0.291,0.675,1.007,1.602,1.576,1.641c2.631,0.175,5.286,0.075,8.32,0.075
		C114.006,98.497,105.907,80.31,97.643,61.748z"/>
	<path fill-rule="evenodd" clip-rule="evenodd" fill="#1197D4" d="M90.579,96.913c2.351-5.664,4.604-11.087,7.057-17.008
		c2.442,5.874,4.703,11.313,7.074,17.008C99.93,96.913,95.465,96.913,90.579,96.913z"/>
</g>
</svg>
