<?xml version="1.0" encoding="utf-8"?>
<!-- Generator: Adobe Illustrator 16.0.0, SVG Export Plug-In . SVG Version: 6.00 Build 0)  -->
<!DOCTYPE svg PUBLIC "-//W3C//DTD SVG 1.1//EN" "http://www.w3.org/Graphics/SVG/1.1/DTD/svg11.dtd">
<svg version="1.1" id="Capa_1" xmlns="http://www.w3.org/2000/svg" xmlns:xlink="http://www.w3.org/1999/xlink" x="0px" y="0px"
	 width="163.394px" height="163.394px" viewBox="0 0 163.394 163.394" enable-background="new 0 0 163.394 163.394"
	 xml:space="preserve">
<g>
	<path fill="#1197D4" d="M59.515,99.298c-0.081,0-0.161-0.002-0.242-0.004c-3.512,0.104-6.515-2.021-8.692-6.136
		c-1.411-2.667-2.155-5.821-2.155-9.123v-0.312c0-2.637,1.417-5.059,3.698-6.319c1.599-0.883,4.134-1.936,7.151-1.936
		c3.134,0,5.896,1.362,7.661,2.505c2.052,1.328,3.275,3.593,3.275,6.062c0,3.33-0.756,6.506-2.189,9.188
		C65.896,97.202,62.959,99.298,59.515,99.298z M59.272,95.982c2.281,0.055,4.26-1.389,5.825-4.321c1.178-2.202,1.8-4.841,1.8-7.626
		c0-1.34-0.659-2.566-1.761-3.278c-1.391-0.903-3.536-1.974-5.862-1.974c-2.31,0-4.292,0.828-5.547,1.521
		c-1.226,0.679-1.99,1.989-1.99,3.42v0.312c0,2.763,0.614,5.382,1.772,7.572C55.08,94.575,57.044,96.051,59.272,95.982z"/>
	<path fill="#1197D4" d="M58.476,117.526H41.504c-0.447,0-0.874-0.181-1.188-0.502c-0.311-0.321-0.481-0.752-0.47-1.2
		c0.21-7.806,5.177-13.917,11.312-13.917h11.331c0.915,0,1.657,0.742,1.657,1.657c0,0.915-0.742,1.657-1.657,1.657H51.158
		c-3.835,0-7.129,3.9-7.854,8.991h15.172c0.915,0,1.657,0.742,1.657,1.657S59.391,117.526,58.476,117.526z"/>
	<path fill="#1197D4" d="M51.229,117.526c-0.914,0-1.656-0.742-1.656-1.657v-3.345c0-0.915,0.742-1.657,1.656-1.657
		c0.918,0,1.657,0.742,1.657,1.657v3.345C52.886,116.784,52.146,117.526,51.229,117.526z"/>
	<path fill="#1197D4" d="M85.147,96.232c-4.083,0-7.645-2.574-10.229-7.458c-1.732-3.273-2.646-7.149-2.646-11.211v-0.39
		c0-3.146,1.689-6.033,4.412-7.538c1.955-1.08,5.061-2.366,8.738-2.366c3.82,0,7.195,1.665,9.352,3.064
		c2.447,1.584,3.909,4.286,3.909,7.23c0,4.095-0.931,7.999-2.691,11.293c-2.64,4.942-6.267,7.539-10.562,7.37
		C85.337,96.23,85.241,96.232,85.147,96.232z M85.422,70.583c-2.975,0-5.522,1.063-7.139,1.954
		c-1.663,0.919-2.698,2.696-2.698,4.636v0.39c0,3.524,0.783,6.864,2.263,9.66c2.042,3.863,4.575,5.748,7.582,5.691
		c3.063,0.075,5.604-1.806,7.64-5.62c1.505-2.814,2.3-6.179,2.3-9.731c0-1.813-0.895-3.477-2.396-4.447
		C91.19,71.959,88.434,70.583,85.422,70.583z"/>
	<path fill="#1197D4" d="M111.352,99.298c-3.356,0-6.295-2.096-8.419-6.075c-1.434-2.684-2.192-5.86-2.192-9.188
		c0-2.466,1.227-4.731,3.277-6.062c1.764-1.143,4.524-2.505,7.662-2.505c3.018,0,5.553,1.053,7.15,1.936
		c2.281,1.26,3.697,3.68,3.697,6.319v0.312c0,3.304-0.744,6.458-2.154,9.123c-2.177,4.115-5.227,6.248-8.785,6.136
		C111.509,99.296,111.432,99.298,111.352,99.298z M111.68,78.783c-2.328,0-4.472,1.071-5.86,1.972
		c-1.104,0.716-1.765,1.942-1.765,3.28c0,2.785,0.624,5.422,1.8,7.626c1.567,2.93,3.446,4.365,5.733,4.321
		c2.322,0.057,4.286-1.409,5.857-4.375c1.157-2.188,1.77-4.807,1.77-7.572v-0.312c0-1.431-0.761-2.743-1.986-3.42
		C115.972,79.61,113.989,78.783,111.68,78.783z"/>
	<path fill="#1197D4" d="M129.45,117.526h-16.972c-0.915,0-1.657-0.742-1.657-1.657s0.742-1.657,1.657-1.657h15.172
		c-0.726-5.091-4.02-8.991-7.853-8.991h-11.333c-0.915,0-1.657-0.742-1.657-1.657c0-0.915,0.742-1.657,1.657-1.657h11.333
		c6.133,0,11.1,6.112,11.312,13.917c0.01,0.447-0.159,0.878-0.472,1.2C130.326,117.345,129.897,117.526,129.45,117.526z"/>
	<path fill="#1197D4" d="M119.723,117.526c-0.915,0-1.656-0.742-1.656-1.657v-3.345c0-0.915,0.741-1.657,1.656-1.657
		s1.657,0.742,1.657,1.657v3.345C121.38,116.784,120.638,117.526,119.723,117.526z"/>
	<path fill="#1197D4" d="M107.751,117.526H63.205c-0.447,0-0.877-0.181-1.188-0.502c-0.312-0.321-0.482-0.752-0.47-1.2
		c0.256-9.53,6.284-16.996,13.727-16.996h20.407c7.439,0,13.469,7.466,13.727,16.996c0.01,0.447-0.158,0.878-0.472,1.2
		C108.625,117.345,108.196,117.526,107.751,117.526z M64.984,114.212h40.988c-0.796-6.795-5.176-12.069-10.291-12.069H75.274
		C70.156,102.143,65.779,107.417,64.984,114.212z"/>
	<path fill="#1197D4" d="M75.365,117.526c-0.914,0-1.656-0.742-1.656-1.657v-4.183c0-0.915,0.742-1.657,1.656-1.657
		c0.915,0,1.657,0.742,1.657,1.657v4.183C77.022,116.784,76.28,117.526,75.365,117.526z"/>
	<path fill="#1197D4" d="M95.588,117.526c-0.914,0-1.656-0.742-1.656-1.657v-4.183c0-0.915,0.742-1.657,1.656-1.657
		c0.918,0,1.657,0.742,1.657,1.657v4.183C97.245,116.784,96.506,117.526,95.588,117.526z"/>
	<path fill="#1197D4" d="M131.551,117.526H39.403c-0.915,0-1.657-0.742-1.657-1.657s0.742-1.657,1.657-1.657h92.147
		c0.914,0,1.656,0.742,1.656,1.657S132.465,117.526,131.551,117.526z"/>
	<path fill="#1197D4" d="M130.223,102.204c-0.22,0-0.445-0.043-0.661-0.138c-0.837-0.364-1.224-1.34-0.855-2.18
		c2.586-5.941,3.899-12.269,3.899-18.806c0-25.987-21.142-47.128-47.129-47.128c-25.986,0-47.128,21.142-47.128,47.128
		c0,6.328,1.231,12.468,3.663,18.249c0.354,0.844-0.042,1.815-0.886,2.169c-0.844,0.356-1.815-0.041-2.17-0.885
		c-2.603-6.191-3.922-12.762-3.922-19.533c0-27.815,22.628-50.443,50.442-50.443c27.815,0,50.443,22.628,50.443,50.443
		c0,6.995-1.405,13.769-4.179,20.129C131.471,101.833,130.861,102.204,130.223,102.204z"/>
	<path fill="#1197D4" d="M110.844,71.933c-0.825,0-1.539-0.618-1.643-1.46c-2.552-21.162-12.529-36.521-23.725-36.521
		c-0.914,0-1.656-0.744-1.656-1.659s0.742-1.655,1.656-1.655c13.106,0,24.217,16.217,27.016,39.439
		c0.108,0.909-0.538,1.734-1.447,1.844C110.979,71.929,110.911,71.933,110.844,71.933z"/>
	<path fill="#1197D4" d="M60.11,71.933c-0.065,0-0.132-0.004-0.201-0.012c-0.907-0.11-1.556-0.936-1.446-1.844
		c2.798-23.222,13.908-39.439,27.014-39.439c0.915,0,1.655,0.74,1.655,1.655s-0.74,1.659-1.655,1.659
		c-11.197,0-21.174,15.359-23.724,36.521C61.651,71.314,60.936,71.933,60.11,71.933z"/>
	<path fill="#1197D4" d="M134.263,82.737c-0.915,0-1.657-0.742-1.657-1.657c0-13.43-21.142-24.352-47.129-24.352
		c-25.986,0-47.128,10.922-47.128,24.352c0,0.915-0.742,1.657-1.657,1.657s-1.657-0.742-1.657-1.657
		c0-15.516,22.156-27.667,50.442-27.667c28.287,0,50.443,12.151,50.443,27.667C135.92,81.995,135.178,82.737,134.263,82.737z"/>
	<path fill="#1197D4" d="M85.477,63.619c-0.914,0-1.656-0.742-1.656-1.657V32.292c0-0.915,0.742-1.655,1.656-1.655
		c0.915,0,1.655,0.74,1.655,1.655v29.669C87.132,62.876,86.392,63.619,85.477,63.619z"/>
	<path fill="#1197D4" d="M134.263,82.737h-8.507c-0.915,0-1.657-0.742-1.657-1.657s0.742-1.657,1.657-1.657h8.507
		c0.915,0,1.657,0.742,1.657,1.657S135.178,82.737,134.263,82.737z"/>
	<path fill="#1197D4" d="M45.198,82.737h-8.507c-0.915,0-1.657-0.742-1.657-1.657s0.742-1.657,1.657-1.657h8.507
		c0.915,0,1.657,0.742,1.657,1.657S46.113,82.737,45.198,82.737z"/>
</g>
</svg>
