<?xml version="1.0" encoding="utf-8"?>
<!-- Generator: Adobe Illustrator 16.0.0, SVG Export Plug-In . SVG Version: 6.00 Build 0)  -->
<!DOCTYPE svg PUBLIC "-//W3C//DTD SVG 1.1//EN" "http://www.w3.org/Graphics/SVG/1.1/DTD/svg11.dtd">
<svg version="1.1" id="Capa_1" xmlns="http://www.w3.org/2000/svg" xmlns:xlink="http://www.w3.org/1999/xlink" x="0px" y="0px"
	 width="190.252px" height="190.252px" viewBox="0 0 190.252 190.252" enable-background="new 0 0 190.252 190.252"
	 xml:space="preserve">
<circle fill="#96CAE3" cx="93.91" cy="94.601" r="80.524"/>
<g>
	<path fill-rule="evenodd" clip-rule="evenodd" fill="#1197D4" d="M115.462,141.683c-0.635,0-1.269,0-1.904,0
		c-0.467-0.071-0.934-0.136-1.397-0.218c-2.462-0.433-4.749-1.348-6.946-2.511c-3.398-1.795-6.44-4.084-9.295-6.64
		c-0.606-0.547-1.204-1.106-1.818-1.674c-0.146,0.134-0.264,0.236-0.378,0.344c-1.96,1.856-4.026,3.584-6.246,5.124
		c-3.271,2.269-6.726,4.166-10.638,5.095c-1.811,0.429-3.645,0.585-5.486,0.264c-3.041-0.531-5.127-2.33-6.522-5.016
		c-1.276-2.46-1.776-5.124-1.976-7.85c-0.277-3.748,0.113-7.452,0.797-11.132c0.228-1.241,0.52-2.469,0.789-3.727
		c-0.11-0.039-0.217-0.08-0.326-0.112c-4.514-1.342-8.84-3.113-12.791-5.716c-2.511-1.653-4.788-3.566-6.436-6.124
		c-2.285-3.546-2.317-7.1,0.017-10.644c1.155-1.754,2.646-3.188,4.307-4.455c3.579-2.725,7.612-4.561,11.833-6.017
		c1.139-0.393,2.29-0.738,3.461-1.112c-0.024-0.14-0.045-0.266-0.077-0.39c-0.626-2.603-1.13-5.229-1.397-7.895
		c-0.268-2.686-0.337-5.376-0.029-8.07c0.23-2.025,0.662-3.997,1.488-5.87c1.752-3.981,4.924-6.006,9.157-5.819
		c2.131,0.096,4.168,0.636,6.145,1.432c4.412,1.773,8.23,4.471,11.813,7.541c0.797,0.683,1.564,1.399,2.366,2.119
		c0.163-0.15,0.31-0.285,0.456-0.423c2.586-2.46,5.337-4.711,8.364-6.61c2.556-1.606,5.233-2.96,8.186-3.68
		c0.878-0.214,1.777-0.328,2.668-0.486c0.606,0,1.212,0,1.817,0c0.107,0.027,0.216,0.069,0.326,0.082
		c1.264,0.13,2.447,0.5,3.537,1.159c1.858,1.131,3.061,2.808,3.92,4.76c1.219,2.773,1.621,5.719,1.717,8.712
		c0.109,3.57-0.297,7.102-0.984,10.604c-0.191,0.968-0.406,1.931-0.605,2.881c0.031,0.03,0.044,0.042,0.057,0.047
		c0.711,0.224,1.423,0.443,2.135,0.673c4.283,1.399,8.396,3.166,12.109,5.762c2.05,1.429,3.9,3.068,5.283,5.172
		c2.191,3.341,2.271,6.729,0.191,10.152c-1.135,1.858-2.648,3.375-4.344,4.713c-3.465,2.73-7.381,4.616-11.492,6.128
		c-1.224,0.449-2.468,0.846-3.721,1.275c0.017,0.1,0.022,0.197,0.047,0.294c0.71,2.883,1.189,5.805,1.409,8.766
		c0.19,2.58,0.154,5.154-0.229,7.72c-0.315,2.104-0.84,4.142-1.82,6.041c-1.24,2.403-3.018,4.205-5.691,4.955
		C116.702,141.475,116.076,141.559,115.462,141.683z M93.792,112.967c3.001-0.12,6.068-0.238,9.137-0.378
		c0.167-0.008,0.379-0.185,0.484-0.34c3.281-4.949,6.25-10.077,8.869-15.406c0.122-0.248,0.126-0.425,0-0.675
		c-2.625-5.227-5.543-10.286-8.787-15.158c-0.236-0.356-0.496-0.502-0.903-0.514c-2.523-0.085-5.044-0.263-7.563-0.254
		c-3.288,0.01-6.576,0.165-9.857,0.262c-0.293,0.008-0.533,0.067-0.729,0.358c-3.318,4.908-6.266,10.032-8.86,15.359
		c-0.118,0.244-0.122,0.439,0,0.685c2.61,5.35,5.587,10.492,8.946,15.406c0.1,0.151,0.33,0.287,0.504,0.295
		C87.928,112.739,90.823,112.849,93.792,112.967z M65.57,109.643c0.081-0.177,0.106-0.216,0.118-0.254
		c1.342-4.286,2.952-8.466,4.818-12.547c0.076-0.163,0.055-0.423-0.021-0.592c-1.796-3.94-3.357-7.972-4.667-12.1
		c-0.04-0.13-0.098-0.256-0.163-0.429c-1.325,0.435-2.623,0.821-3.891,1.279c-3.559,1.283-6.975,2.861-10,5.179
		c-1.46,1.118-2.789,2.373-3.664,4.03c-0.414,0.789-0.732,1.625-0.564,2.523c0.365,1.988,1.271,3.717,2.821,5.024
		c2.81,2.371,5.893,4.337,9.304,5.728C61.597,108.272,63.59,108.923,65.57,109.643z M68.685,114.813
		c-0.053,0.15-0.102,0.256-0.121,0.366c-0.387,2.106-0.83,4.201-1.139,6.319c-0.438,2.989-0.492,5.998,0.002,8.995
		c0.278,1.7,0.726,3.344,1.727,4.784c0.553,0.799,1.234,1.413,2.22,1.679c2.001,0.539,3.955,0.464,5.88-0.297
		c3.827-1.511,7.377-3.505,10.529-6.167c1.121-0.948,2.195-1.944,3.283-2.908c-1.188-1.368-2.377-2.649-3.463-4.01
		c-1.721-2.147-3.367-4.349-5.055-6.522c-0.102-0.13-0.276-0.271-0.432-0.289c-0.886-0.108-1.78-0.155-2.663-0.271
		c-2.396-0.319-4.786-0.643-7.177-1.002C71.085,115.311,69.907,115.047,68.685,114.813z M119.398,114.642
		c-2.078,0.386-4.061,0.812-6.063,1.11c-2.415,0.362-4.852,0.622-7.279,0.911c-0.297,0.037-0.483,0.141-0.668,0.38
		c-2.039,2.684-4.081,5.366-6.15,8.027c-0.659,0.848-1.403,1.637-2.156,2.509c1.416,1.218,2.784,2.456,4.222,3.611
		c2.627,2.106,5.433,3.93,8.589,5.165c1.577,0.616,3.195,1.065,4.912,0.996c0.898-0.035,1.793-0.173,2.504-0.783
		c1.408-1.204,2.388-2.7,2.822-4.501c0.484-2.025,0.615-4.099,0.678-6.171c0.084-2.818-0.205-5.61-0.775-8.369
		C119.838,116.56,119.61,115.6,119.398,114.642z M90.888,65.686c-0.049-0.053-0.093-0.107-0.142-0.154
		c-2.167-2.037-4.453-3.928-6.941-5.561c-2.437-1.602-4.979-2.991-7.824-3.745c-1.132-0.299-2.281-0.478-3.456-0.376
		c-2.021,0.173-3.254,1.372-4.047,3.129c-0.902,1.999-1.211,4.129-1.311,6.295c-0.174,3.735,0.273,7.414,1.047,11.059
		c0.154,0.726,0.338,1.445,0.5,2.147c0.09,0.01,0.122,0.021,0.146,0.016c4.298-0.97,8.645-1.623,13.029-2.043
		c0.314-0.03,0.478-0.168,0.65-0.398c1.5-1.97,2.977-3.96,4.525-5.89C88.282,68.644,89.587,67.201,90.888,65.686z M119.13,78.536
		c0.033-0.082,0.049-0.12,0.061-0.161c0.713-2.869,1.172-5.776,1.379-8.727c0.146-2.116,0.118-4.233-0.17-6.339
		c-0.232-1.659-0.603-3.284-1.396-4.776c-1.208-2.273-2.839-3.038-5.431-2.743c-2.043,0.232-3.924,0.982-5.74,1.897
		c-3.266,1.645-6.172,3.808-8.896,6.226c-0.655,0.58-1.289,1.182-1.94,1.781c0.793,0.903,1.599,1.734,2.31,2.637
		c2.044,2.59,4.047,5.209,6.082,7.808c0.113,0.145,0.331,0.262,0.518,0.289c0.939,0.13,1.89,0.202,2.826,0.342
		c2.363,0.352,4.722,0.716,7.076,1.106C116.909,78.056,118.004,78.31,119.13,78.536z M122.196,83.812
		c-0.069,0.193-0.118,0.326-0.162,0.459c-1.289,4.03-2.826,7.964-4.611,11.799c-0.135,0.291-0.143,0.514-0.003,0.805
		c1.563,3.271,2.946,6.616,4.142,10.04c0.277,0.797,0.547,1.596,0.83,2.419c0.34-0.1,0.643-0.185,0.939-0.283
		c4.29-1.376,8.413-3.115,12.09-5.778c1.62-1.173,3.092-2.501,4.131-4.248c1.058-1.773,1.013-3.511-0.102-5.244
		c-0.988-1.545-2.32-2.749-3.785-3.816c-3.445-2.507-7.309-4.166-11.326-5.492C123.634,84.241,122.92,84.036,122.196,83.812z
		 M118.187,110.432c-0.984-3.042-2.094-5.976-3.371-8.833c-2.009,3.493-3.993,6.939-6.004,10.437
		C111.965,111.67,115.067,111.139,118.187,110.432z M94.081,124.554c2.045-2.517,4.001-4.92,6.018-7.397c-4.119,0-8.08,0-12.199,0
		C89.974,119.64,91.979,122.041,94.081,124.554z M79.083,112.111c-2.019-3.481-4.006-6.903-6.051-10.433
		c-1.098,2.983-2.178,5.923-3.281,8.924C72.906,111.281,75.977,111.775,79.083,112.111z M94.011,68.74
		c-2.175,2.361-4.157,4.725-6.025,7.206c3.988,0,7.921,0,12.004,0C97.966,73.508,96.013,71.149,94.011,68.74z M108.774,81.041
		c2.044,3.523,4.016,6.925,6.049,10.435c1.086-2.924,2.154-5.795,3.273-8.808C114.929,82.114,111.896,81.586,108.774,81.041z
		 M69.868,82.61c0.956,3.066,2.014,5.947,3.213,8.753c1.98-3.432,3.945-6.836,5.957-10.327C75.973,81.563,72.959,82.08,69.868,82.61
		z"/>
	<path fill-rule="evenodd" clip-rule="evenodd" fill="#1197D4" d="M93.894,87.417c5.021-0.004,9.088,4.044,9.084,9.048
		c-0.004,4.986-4.059,9.036-9.052,9.04c-5.019,0.006-9.089-4.048-9.085-9.05C84.848,91.471,88.903,87.419,93.894,87.417z"/>
</g>
</svg>
